<?xml version="1.0" encoding="utf-8"?>
<!-- Generator: Adobe Illustrator 18.0.0, SVG Export Plug-In . SVG Version: 6.00 Build 0)  -->
<!DOCTYPE svg PUBLIC "-//W3C//DTD SVG 1.1//EN" "http://www.w3.org/Graphics/SVG/1.1/DTD/svg11.dtd">
<svg version="1.1" xmlns="http://www.w3.org/2000/svg" xmlns:xlink="http://www.w3.org/1999/xlink" x="0px" y="0px"
	 viewBox="0 0 200 200" enable-background="new 0 0 200 200" xml:space="preserve">
<g display="none">
	<defs>
		<rect id="SVGID_1_" x="-38.3" y="28" width="199.3" height="176"/>
	</defs>
	<clipPath id="SVGID_2_" display="inline">
		<use xlink:href="#SVGID_1_"  overflow="visible"/>
	</clipPath>
	<g display="inline" clip-path="url(#SVGID_2_)">
		<path d="M162.6,184.1V179H153v-23.7h1.2v-8.5h2.3c2,0,3.7-1.6,3.7-3.7v-4.3c0-2-1.6-3.7-3.7-3.7h-2.3v-7.1H153v-21.3h1.2v-7.1h2.3
			c2,0,3.7-1.6,3.7-3.7v-4.3c0-2-1.6-3.7-3.7-3.7h-2.3v-8.4H153V55.8h9.6v-5.1H153v-5.4h9.6v-5.1H153v-8.8c0-0.7-0.1-1.4-0.2-2.1
			h-5.2c0.2,0.7,0.3,1.4,0.3,2.1v8.8h-9.6V29.3h-9.7v10.9H80.1H67.8V-1.1h-0.1h-9.7H58v41.3H45.7H-2.7V29.3h-9.7v10.9h-9.6v-8.8
			c0-0.7,0.1-1.5,0.3-2.1H-27c-0.1,0.7-0.2,1.4-0.2,2.1v8.8h-9.6v5.1h9.6v5.4h-9.6v5.1h9.6v23.7h-1.2v8.4h-2.3c-2,0-3.7,1.6-3.7,3.7
			V96c0,2,1.6,3.7,3.7,3.7h2.3v7.1h1.2v21.3h-1.2v7.1h-2.3c-2,0-3.7,1.6-3.7,3.7v4.3c0,2,1.6,3.7,3.7,3.7h2.3v8.5h1.2V179h-9.6v5.1
			h9.6v5.4h-9.6v5.1h9.6v8.8c0,0.7,0.1,1.4,0.2,2.1h5.2c-0.2-0.7-0.3-1.4-0.3-2.1v-8.8h9.6v10.9h9.7v-10.9h48.5H58v42.9h0.1h9.7h0.1
			v-42.9h12.3h48.5v10.9h9.7v-10.9h9.6v8.8c0,0.7-0.1,1.5-0.3,2.1h5.2c0.1-0.7,0.2-1.4,0.2-2.1v-8.8h9.6v-5.1H153v-5.4H162.6z
			 M103.8,132.9v-0.2h0c-0.1-1.1-0.5-2.1-0.9-3.1h8.5c-0.3,1-0.6,2-0.7,3.1h-0.2v7.3c0,3.8-3,6.8-6.7,7v-12.8h0.1
			C103.9,133.7,103.9,133.3,103.8,132.9z M98.7,133.2V147c-5.6,0.7-10.1,5.3-10.5,11h0v14.8c0,3.7-2.9,6.7-6.6,7v0H67.8v-31.7v-4.7
			h1.3h0.3v-6h3.1h0.1c2,0,3.7-1.6,3.7-3.7v-1.4c0,0,0,0,0,0v-1.3h8v-1.4H97C97.9,130.6,98.5,131.8,98.7,133.2z M44.2,179.7
			L44.2,179.7c-3.7-0.2-6.6-3.2-6.6-6.9v-14.8h0c-0.4-5.7-4.9-10.3-10.5-11v-13.8c0.2-1.4,0.8-2.7,1.7-3.7h12.7v1.4h8v1.3v1.4
			c0,2,1.6,3.7,3.7,3.7h0.1h3.1v6h0.3H58v4.7h0v31.7H44.2z M22,134.2V147c-3.7-0.2-6.7-3.2-6.7-7v-7.3h-0.2
			c-0.1-1.1-0.3-2.1-0.7-3.1h8.5c-0.4,1-0.7,2-0.9,3.1h0v0.2C21.9,133.3,21.9,133.7,22,134.2L22,134.2z M-2.7,155.3h1.6v-7.3h6.8
			v-13.8h0c0-2.1,1.4-3.8,3.3-4.4c0.7,1.1,1.1,2.3,1.1,3.6h0.2v6.6c0,6.6,5.3,11.9,11.8,12.1V172c0,3.8-3.1,7-7,7H-2.7V155.3z
			 M-22.1,128.1v-21.3h1.1v-7.1h6.1v14.6c0,1.1,0.2,2.2,0.5,3.2c-0.3,1-0.5,2.1-0.5,3.2v14.6H-21v-7.1H-22.1z M22,101.9v0.2h0
			c0.1,1.1,0.5,2.1,0.9,3.1h-8.5c0.3-1,0.6-2,0.7-3.1h0.2v-7.3c0-3.8,3-6.8,6.7-7v12.8h-0.1C21.9,101.1,21.9,101.5,22,101.9z
			 M27.1,101.6V87.8c5.6-0.7,10.1-5.3,10.5-11h0V62c0-3.7,2.9-6.7,6.6-7v0H58v36.4h-1.3h-0.3v6h-3.1h-0.1c-2,0-3.7,1.6-3.7,3.7v1.4
			v1.3h-8v1.4H28.8C27.9,104.2,27.3,103,27.1,101.6z M10.4,115h31.2v1.6h8v1.6h-8v1.6H10.4c-2.3,0-4.5,0.6-6.5,1.6
			c-0.3,0-0.6-0.1-0.8-0.1h-5.8v-0.2c-2.7,0-5-1.6-6.2-3.8c1.2-2.2,3.5-3.8,6.2-3.8v-0.2H3c0.3,0,0.6-0.1,0.8-0.1
			C5.8,114.4,8,115,10.4,115z M-4,101.2c0.1,2.7,1,5.1,2.3,7.2h-3.1v0.3c-1.8,0.3-3.5,1.1-5,2.1V99.6h5.7L-4,101.2L-4,101.2z
			 M-9.8,124c1.5,1,3.1,1.8,5,2.1v0.3h3.1c-1.4,2.1-2.2,4.5-2.3,7.2h-0.1v1.5h-5.7V124z M81.6,55.1L81.6,55.1
			c3.7,0.2,6.6,3.2,6.6,6.9v14.8h0c0.4,5.7,4.9,10.3,10.5,11v13.8c-0.2,1.4-0.8,2.7-1.7,3.7H84.2v-1.4h-8v-2.8c0-2-1.6-3.7-3.7-3.7
			h-0.1h-3.1v-6h-0.3h-1.3v-4.7V55.1H81.6z M103.8,100.6V87.8c3.7,0.2,6.7,3.2,6.7,7v7.3h0.2c0.1,1.1,0.3,2.1,0.7,3.1h-8.5
			c0.4-1,0.7-2,0.9-3.1h0v-0.2C103.9,101.5,103.9,101.1,103.8,100.6L103.8,100.6z M128.5,79.5h-1.6v7.3h-6.8v13.8h0
			c0,2.1-1.4,3.8-3.3,4.4c-0.7-1.1-1.1-2.3-1.1-3.6h-0.2v-6.6c0-6.6-5.3-11.9-11.8-12.1V62.8c0-3.8,3.1-7,7-7h17.7V79.5z
			 M135.6,110.8c-1.5-1-3.1-1.8-5-2.1v-0.3h-3.1c1.4-2.1,2.2-4.5,2.3-7.2h0.1v-1.5h5.7V110.8z M115.4,119.8H84.2v-1.6h-8v-1.6h8V115
			h31.2c2.3,0,4.5-0.6,6.5-1.6c0.3,0,0.6,0.1,0.8,0.1h5.8v0.2c2.7,0,5,1.5,6.2,3.8c-1.2,2.2-3.5,3.8-6.2,3.8v0.2h-5.8
			c-0.3,0-0.6,0.1-0.9,0.1C119.9,120.5,117.8,119.8,115.4,119.8z M129.8,133.7c-0.1-2.7-1-5.1-2.3-7.2h3.1v-0.3
			c1.8-0.3,3.5-1.1,5-2.1v11.2h-5.7L129.8,133.7L129.8,133.7z M140.2,117.4c0.3-1,0.5-2.1,0.5-3.2V99.6h6.1v7.1h1.1v21.3h-1.1v7.1
			h-6.1v-14.6C140.7,119.5,140.5,118.4,140.2,117.4z M138.2,45.3h9.6v5.4h-9.6V45.3z M138.2,55.8h9.6v23.7h-1.1v8.4h-6.1v-1.2h-1.1
			v-7.3h-1.4V55.8z M80.1,45.3h48.5v5.4h-17.7c-6.5,0-11.8,5.1-12.1,11.5h0v20.3c-3.1-0.7-5.4-3.5-5.4-6.8V62
			c0-6.7-5.4-12.1-12.1-12.1V50h-1.1H67.8v-4.6H80.1z M-2.7,45.3h48.5H58V50H45.7h-1.1v-0.1c-6.7,0-12.1,5.4-12.1,12.1v13.8
			c0,3.3-2.3,6.1-5.4,6.8V62.3h0c-0.3-6.4-5.6-11.5-12.1-11.5H-2.7V45.3z M-2.7,55.8H15c3.8,0,7,3.1,7,7v19.9
			c-6.5,0.2-11.8,5.5-11.8,12.1v6.6H10c0,1.3-0.4,2.6-1.1,3.6c-1.9-0.6-3.3-2.3-3.3-4.4h0V86.8h-6.8v-7.3h-1.6V55.8z M-22.1,45.3
			h9.6v5.4h-9.6V45.3z M-22.1,55.8h9.6v23.7h-1.4v7.3h-1.1v1.2H-21v-8.4h-1.1V55.8z M-12.5,189.5h-9.6v-5.4h9.6V189.5z M-12.5,179
			h-9.6v-23.7h1.1v-8.4h6.1v1.2h1.1v7.3h1.4V179z M45.7,189.5H-2.7v-5.4H15c6.5,0,11.8-5.1,12.1-11.5h0v-20.3
			c3.1,0.7,5.4,3.5,5.4,6.8v13.8c0,6.7,5.4,12.1,12.1,12.1v-0.1h1.1H58v4.6H45.7z M128.5,189.5H80.1H67.8v-4.6h12.3h1.1v0.1
			c6.7,0,12.1-5.4,12.1-12.1V159c0-3.3,2.3-6.1,5.4-6.8v20.3h0c0.3,6.4,5.6,11.5,12.1,11.5h17.7V189.5z M128.5,179h-17.7
			c-3.8,0-7-3.1-7-7v-19.9c6.5-0.2,11.8-5.5,11.8-12.1v-6.6h0.2c0-1.3,0.4-2.6,1.1-3.6c1.9,0.6,3.3,2.3,3.3,4.4h0v13.8h6.8v7.3h1.6
			V179z M147.9,189.5h-9.6v-5.4h9.6V189.5z M147.9,179h-9.6v-23.7h1.4v-7.3h1.1v-1.2h6.1v8.4h1.1V179z"/>
		<path d="M70.5,133.5H55.2c-0.6,0-1.1-0.5-1.1-1.1v-31.7c0-0.6,0.5-1.1,1.1-1.1h15.3c0.6,0,1.1,0.5,1.1,1.1v31.7
			C71.6,133,71.1,133.5,70.5,133.5z"/>
	</g>
</g>
<path display="none" d="M160.3,87.3V74.9h-25.6V58c0-6.8-5.6-12.4-12.4-12.4h-16.7V18.5H93.3v27.1H72.6V19H55.3v26.7H31.7V18.5H19.3
	v27.1H2.7c-6.8,0-12.4,5.6-12.4,12.4v16.9h-25.6v12.4h25.6v20.6h-25.6v17.3h25.6v23.6h-25.6v12.4h25.6v16.5
	c0,6.8,5.6,12.4,12.4,12.4h16.7v27.4h12.4v-27.4h23.6v27h17.3v-27h20.6v27.4h12.4v-27.4h16.7c6.8,0,12.4-5.6,12.4-12.4v-16.5h25.6
	v-12.4h-25.6v-23.6h25.2v-17.3h-25.2V87.3H160.3z M119.9,124H94.3v-12h25.5V124z M83.2,133.6c0,0.8-0.2,1.5-0.5,2.1
	c-0.8,1.7-2.5,2.8-4.4,2.8H46.7c-2,0-3.6-1.2-4.4-2.8c-0.3-0.6-0.5-1.4-0.5-2.1V124v-12v-9.9c0-0.8,0.2-1.5,0.5-2.1
	c0.8-1.7,2.5-2.8,4.4-2.8h31.6c2,0,3.6,1.2,4.4,2.8c0.3,0.6,0.5,1.4,0.5,2.1v9.9v12V133.6z M68.5,175.2h-12v-25.5h12V175.2z
	 M5.1,112h25.5v12H5.1V112z M56.5,60.5h12V86h-12V60.5z M119.9,60.5v39.1H94.3V91c0-2.7-2.2-5-5-5h-8.5V60.5H119.9z M5.1,60.5h39V86
	h-8.5c-2.7,0-5,2.2-5,5v8.7H5.1V60.5z M5.1,175.2v-38.8h25.5v8.3c0,2.7,2.2,5,5,5h8.5v25.5H5.1z M119.9,175.2h-39v-25.5h8.5
	c2.7,0,5-2.2,5-5v-8.3h25.5V175.2z"/>
<g id="Demanding_Spaces">
	<path d="M41.7,37.1h45.2c2.7,0,4.8-2.2,4.8-4.8v-4.4c0-2.7-2.2-4.8-4.8-4.8H41.7c-2.7,0-4.8,2.2-4.8,4.8v4.4
		C36.8,35,39,37.1,41.7,37.1z"/>
	<path d="M57,17.1h14.6c2.7,0,4.8-2.2,4.8-4.8V7.8c0-2.7-2.2-4.8-4.8-4.8H57c-2.7,0-4.8,2.2-4.8,4.8v4.4
		C52.1,14.9,54.3,17.1,57,17.1z"/>
	<path d="M110,85.4V48.7c0-2.7-2.2-4.8-4.8-4.8H23.3c-2.7,0-4.8,2.2-4.8,4.8v125.7c0,2.7,2.2,4.8,4.8,4.8h55
		c-6.5-9.9-10.3-21.7-10.3-34.4C68,117.4,85.6,94.1,110,85.4z M69.8,68.3c0-2.7,2.2-4.8,4.8-4.8h11c2.7,0,4.8,2.2,4.8,4.8v11
		c0,2.7-2.2,4.8-4.8,4.8h-11c-2.7,0-4.8-2.2-4.8-4.8V68.3z M58.7,155.6c0,2.7-2.2,4.8-4.8,4.8h-11c-2.7,0-4.8-2.2-4.8-4.8v-11
		c0-2.7,2.2-4.8,4.8-4.8h11c2.7,0,4.8,2.2,4.8,4.8V155.6z M58.7,117.5c0,2.7-2.2,4.8-4.8,4.8h-11c-2.7,0-4.8-2.2-4.8-4.8v-11
		c0-2.7,2.2-4.8,4.8-4.8h11c2.7,0,4.8,2.2,4.8,4.8V117.5z M58.7,79.4c0,2.7-2.2,4.8-4.8,4.8h-11c-2.7,0-4.8-2.2-4.8-4.8v-11
		c0-2.7,2.2-4.8,4.8-4.8h11c2.7,0,4.8,2.2,4.8,4.8V79.4z"/>
	<path d="M131.1,91.8c-29.2,0-53,23.8-53,53c0,29.2,23.8,53,53,53c29.2,0,53-23.8,53-53C184.1,115.6,160.3,91.8,131.1,91.8z
		 M131.1,186.2c-22.8,0-41.4-18.6-41.4-41.4c0-22.8,18.6-41.4,41.4-41.4c22.8,0,41.4,18.6,41.4,41.4
		C172.4,167.6,153.9,186.2,131.1,186.2z"/>
	<path d="M158,134.1l-11.4-16.6l-0.3-0.3c-0.6-0.4-1.3-0.7-2-0.7h-26.5c-0.7,0-1.4,0.2-2,0.7l-11.9,17.1c-0.4,0.4-1.2,1.2-1.2,2.6
		v4.2c0,1.9,1.5,3.4,3.4,3.4h20.6v13c-4.6,0.6-8.7,2-11.8,4l-0.6,0.4v6.5l0.6,0.4c4.1,2.7,10.1,4.3,16.5,4.3c6,0,11.8-1.4,15.8-3.8
		l0.6-0.4v-7.5l-0.6-0.4c-3.1-1.9-7.2-3.1-11.7-3.6v-12.9h20.6c1.9,0,3.4-1.5,3.4-3.4v-4.2C159.4,135.5,158.5,134.5,158,134.1z
		 M113.5,134.4l7.3-14.2h19.7l8.6,14.2H113.5z"/>
</g>
</svg>
