<?xml version="1.0" encoding="utf-8"?>
<!-- Generator: Adobe Illustrator 18.0.0, SVG Export Plug-In . SVG Version: 6.00 Build 0)  -->
<!DOCTYPE svg PUBLIC "-//W3C//DTD SVG 1.1//EN" "http://www.w3.org/Graphics/SVG/1.1/DTD/svg11.dtd">
<svg version="1.1" id="Layer_1" xmlns="http://www.w3.org/2000/svg" xmlns:xlink="http://www.w3.org/1999/xlink" x="0px" y="0px"
	 viewBox="0 0 1224 792" enable-background="new 0 0 1224 792" xml:space="preserve">
<g>
	<path d="M830.008,406.247l-28.412-41.426c-15.923,5.644-32.742,9.345-50.183,10.863l19.165,33.633H363.505l72.119-149.044H549.25
		c-4.201-8.756-7.802-17.851-10.735-27.236H433.827c-7.162,0-14.222,2.304-19.857,6.509l-117.295,168.38
		c-4.157,3.528-11.692,11.793-11.692,25.44v40.943c0,18.379,14.976,33.355,33.355,33.355h202.585v128.142
		c-45.321,5.635-86.076,19.407-115.893,39.634l-5.607,3.831v64.434l5.635,3.831c39.763,26.995,99.061,42.47,162.641,42.47
		c59.452,0,116.192-13.848,155.733-37.986l6.134-3.758v-73.545l-6.134-3.758c-30.471-18.609-71.14-31.067-115.367-35.824V507.665
		h202.585c18.379,0,33.355-14.976,33.355-33.355v-40.943C844.006,419.47,834.539,409.977,830.008,406.247z"/>
	<path d="M736.323,78c-40.711,0-73.713,33.002-73.713,73.713s33.003,73.713,73.713,73.713s73.713-33.002,73.713-73.713
		S777.033,78,736.323,78z M736.323,210.39c-32.407,0-58.677-26.271-58.677-58.677s26.271-58.677,58.677-58.677
		c32.407,0,58.677,26.271,58.677,58.677S768.729,210.39,736.323,210.39z"/>
	<path d="M893.728,107.559c-5.321-13.618-12.358-26.374-20.844-38.011c-6.786-9.305-14.505-17.896-23.011-25.625
		c-4.004-3.642-8.18-7.089-12.523-10.336c-8.68-6.489-18-12.169-27.857-16.917c-2.465-1.184-4.963-2.316-7.492-3.383
		c-5.055-2.139-10.239-4.04-15.532-5.688C770.584,2.662,753.698,0,736.189,0c-46.687,0-88.959,18.923-119.554,49.522
		c-7.65,7.65-14.569,16.026-20.646,25.021c-1.518,2.248-2.984,4.536-4.399,6.859c-5.648,9.297-10.424,19.18-14.219,29.541
		c-1.893,5.175-3.545,10.476-4.934,15.878c-3.476,13.505-5.325,27.663-5.325,42.257c0,21.449,4.036,41.946,11.322,60.829
		c3.674,9.518,8.153,18.637,13.408,27.236c29.411,48.105,82.192,80.336,142.554,80.964c0.6,0.008,1.192,0.044,1.792,0.044
		c16.409,0,32.251-2.38,47.255-6.742c1.007-0.29,2.027-0.547,3.024-0.858c5.293-1.647,10.476-3.545,15.532-5.684
		c2.53-1.072,5.026-2.199,7.492-3.388c9.856-4.749,19.176-10.424,27.857-16.917c4.342-3.247,8.519-6.695,12.523-10.331
		c10.634-9.667,20.03-20.667,27.93-32.742c6.315-9.659,11.669-20.002,15.927-30.898c2.126-5.446,3.983-11.029,5.547-16.736
		c3.907-14.262,5.993-29.278,5.993-44.778C905.268,147.37,901.18,126.623,893.728,107.559z M831.774,182.168
		c-5.271,2.169-10.273,4.227-15.69,6.456c1.669,5.333,3.279,10.475,5.055,16.15c-5.621,0.792-10.972,1.547-16.845,2.374
		c0.335,5.634,0.655,11.033,1.013,17.049c-4.219-0.543-8.164-0.858-12.025-1.604c-2.357-0.455-4.035-0.369-4.996,0.984
		l28.527,57.096l-39.847-26.565l-13.283,26.565l-16.434-41.418c-3.453,4.064-17.008,4.133-20.355,0.235l-16.341,41.182
		l-13.282-26.565l-39.848,26.565l28.382-56.806c-0.1-0.456-0.198-0.909-0.298-1.367c-5.638,0.628-10.877,1.211-16.808,1.871
		c0.292-4.428,0.358-8.396,0.868-12.305c0.463-3.549-0.59-5.106-4.339-5.247c-3.952-0.149-7.882-0.907-12.431-1.475
		c1.685-5.555,3.241-10.684,4.926-16.237c-5.124-2.102-10.12-4.152-15.616-6.406c2.927-4.825,5.716-9.421,8.754-14.428
		c-4.461-3.313-8.795-6.532-13.56-10.07c4.041-3.918,7.913-7.672,12.145-11.775c-3.481-4.286-6.891-8.485-10.657-13.122
		c4.939-2.819,9.627-5.495,14.675-8.377c-2.297-5.096-4.502-9.99-6.91-15.334c5.623-1.598,10.797-3.069,16.222-4.61
		c-0.999-5.53-1.937-10.716-2.972-16.442c4.381-0.092,8.467-0.469,12.505-0.177c3.77,0.272,4.926-1.175,4.916-4.729
		c-0.012-3.939,0.457-7.88,0.753-12.371c4.379,1.102,8.255,1.906,12.017,3.077c3.294,1.025,5.129,0.59,5.946-3.235
		c0.825-3.859,2.425-7.552,3.871-11.873c4.942,2.595,9.711,5.1,14.932,7.842c3.084-4.668,6.127-9.274,9.335-14.131
		c4.285,3.902,8.293,7.55,12.183,11.092c4.395-3.673,8.553-7.148,12.974-10.843c2.393,3.669,4.915,7.282,7.152,11.063
		c1.351,2.283,2.642,2.675,4.947,1.274c3.751-2.28,7.677-4.271,11.856-6.563c1.907,5.492,3.674,10.581,5.564,16.023
		c5.46-1.33,10.696-2.606,16.36-3.986c0.479,5.594,0.928,10.829,1.397,16.305c5.471,0.36,10.831,0.713,16.672,1.098
		c-0.814,5.257-1.637,10.573-2.522,16.293c5.399,1.439,10.484,2.794,16.226,4.324c-2.309,5.12-4.512,10.005-6.93,15.368
		c4.797,2.732,9.471,5.394,14.721,8.384c-3.527,4.397-6.881,8.577-10.544,13.144c3.93,3.777,7.816,7.512,12.154,11.682
		c-4.521,3.44-8.897,6.771-13.5,10.273C825.799,172.665,828.682,177.249,831.774,182.168z"/>
</g>
<polygon points="712.001,132.25 749.501,132.25 749.501,144.75 712.001,144.75 712.001,182.25 762.001,182.25 762.001,169.75 
	724.501,169.75 724.501,157.25 762.001,157.25 762.001,119.75 712.001,119.75 "/>
</svg>
