<?xml version="1.0" encoding="utf-8"?>
<!-- Generator: Adobe Illustrator 18.0.0, SVG Export Plug-In . SVG Version: 6.00 Build 0)  -->
<!DOCTYPE svg PUBLIC "-//W3C//DTD SVG 1.1//EN" "http://www.w3.org/Graphics/SVG/1.1/DTD/svg11.dtd">
<svg version="1.1" id="Layer_1" xmlns="http://www.w3.org/2000/svg" xmlns:xlink="http://www.w3.org/1999/xlink" x="0px" y="0px"
	 viewBox="0 0 180 180" enable-background="new 0 0 180 180" xml:space="preserve">
<g>
	<path fill="#010101" d="M67.9,55.8c0-0.2,0-0.4,0-0.7c-0.1-0.3-0.3-0.3-0.5-0.4C66.2,54.6,5,45.4,4.5,45.3
		c-0.2-0.1-0.5-0.1-0.7-0.3s-1.4-6.9-1.5-7.5c-0.1-0.4,0.2-1.8,0.6-1.9c0.5-0.1,1.1-0.2,1.7-0.2c1.2-0.2,2.4-0.3,3.6-0.5
		c2.4-0.3,4.8-0.7,7.2-1c2.4-0.3,4.8-0.7,7.2-1c2.4-0.3,4.8-0.7,7.2-1c2.4-0.3,4.8-0.7,7.2-1c2.4-0.3,4.8-0.7,7.2-1
		c2.4-0.3,4.8-0.7,7.2-1c2.4-0.3,4.8-0.7,7.2-1c2.4-0.3,4.8-0.6,7.2-0.9c2.4-0.3,4.8-0.6,7.2-0.9s4.8-0.6,7.2-0.9
		c2.4-0.3,4.8-0.6,7.2-0.9c2.4-0.3,4.8-0.6,7.3-0.9c2.4-0.3,4.8-0.6,7.2-0.9c1.2-0.2,2.4-0.4,3.6-0.4c1.2,0,2.4,0.1,3.6,0.2
		c1.2,0.1,2.4,0.2,3.6,0.2c1.2,0.1,2.4,0.2,3.6,0.2c2.4,0.1,4.8,0.3,7.2,0.5c1.2,0.1,2.4,0.1,3.6,0.2c1.2,0.1,2.4,0.2,3.6,0.3
		c2.4,0.1,4.8,0.3,7.2,0.5c2.4,0.2,4.8,0.3,7.3,0.5s4.8,0.3,7.2,0.5c2.4,0.1,4.8,0.3,7.2,0.5c1.2,0.1,2.4,0.1,3.6,0.2
		c1.2,0.1,2.4,0.2,3.6,0.3c2.4,0.2,4.8,0.3,7.3,0.5c0.6,0.1,1.2,0.1,1.8,0.1c0.3,0,0.6,0,0.9,0.1c0.2,0,0.4,0,0.5,0.1
		c0.1,0.1,0.2,0.2,0.2,0.3c0.1,0.2,0,0.5,0,0.8c-0.1,0.6-0.2,1.2-0.2,1.8c-0.1,0.6-0.2,1.2-0.2,1.8c-0.1,0.5-0.1,0.9-0.5,1.2
		c-0.2,0.2-0.5,0.3-0.8,0.4c-0.2,0.1-0.5,0.3-0.8,0.4c-0.5,0.3-1.1,0.5-1.6,0.8c-2.1,1.1-4.3,2.2-6.4,3.3c-2.1,1.1-4.3,2.2-6.4,3.3
		c-2.2,1.1-4.3,2.1-6.5,3.3c-2.2,1.1-4.3,2.2-6.5,3.3c-1.1,0.5-2.1,1.1-3.2,1.6c-1.1,0.5-2.1,1.1-3.2,1.6c-1.1,0.5-2.1,1.1-3.2,1.6
		c-0.2,0.1-0.5,0.3-0.7,0.4c-0.2,0.1-0.3,0.2-0.3,0.4c-0.1,0.6-0.1,1.2-0.2,1.8c-0.2,2.4-0.4,4.8-0.6,7.2c-0.2,2.4-0.3,4.8-0.5,7.2
		c-0.2,2.4-0.4,4.8-0.6,7.2c-0.2,2.4-0.4,4.8-0.6,7.2c-0.2,2.4-0.4,4.8-0.6,7.2c-0.2,2.4-0.4,4.8-0.6,7.2c-0.1,0.6-0.1,1.2-0.1,1.8
		c0,0.3-0.1,0.6-0.1,0.9c0,0.1,0,0.3,0,0.4c0,0.1,0,0.1,0.1,0.1c0,0,0.1,0,0.1,0c0.1,0,0.2,0.1,0.3,0.1c1.2,0.3,2.3,0.6,3.5,0.8
		c0.6,0.1,1.2,0.3,1.8,0.4c0.5,0.1,1,0.2,1.4,0.5c0.4,0.3,0.6,0.7,0.8,1.1c0.3,0.5,0.5,0.9,0.8,1.4c1,2,1.8,4.1,2.1,6.3
		c0.2,1.2,0.3,2.4,0.3,3.6c0,1.2-0.1,2.4-0.2,3.6c-0.2,1.2-0.4,2.3-0.8,3.4c-0.3,1.1-0.8,2.2-1.2,3.2c-0.5,1.1-1,2.1-1.6,3.1
		c-0.6,1-1.2,2-1.9,2.9c-0.7,0.9-1.4,1.8-2.2,2.8c-0.7,0.9-1.4,1.7-2.2,2.5s-1.7,1.5-2.5,2.3c-0.4,0.4-0.8,0.8-1.3,1.1
		c-0.4,0.3-0.8,0.7-1.2,1.1c-0.8,0.8-1.8,1.4-2.8,2.1c-0.9,0.7-1.9,1.4-2.9,2.1c-1,0.6-2,1.2-3,1.8c-1,0.6-2.1,1.3-3.1,1.9
		c-2,1.2-4.1,2.3-6.2,3.3s-4.3,2-6.5,2.9c-2.2,0.9-4.4,1.8-6.7,2.6c-2.2,0.8-4.5,1.7-6.8,2.4c-1.1,0.3-2.3,0.7-3.4,1
		c-0.5,0.2-1.1,0.4-1.7,0.4c-0.3,0-0.5,0-0.8-0.1c-0.1,0-0.2,0-0.4,0c-0.1,0-0.3,0-0.4-0.1c-0.5-0.1-1-0.4-1.5-0.6
		c-0.5-0.2-1.1-0.5-1.6-0.7c-1.1-0.5-2.2-0.9-3.3-1.4c-1.1-0.5-2.2-0.9-3.3-1.4c-1.1-0.5-2.2-0.9-3.3-1.4c-1.1-0.5-2.2-1-3.3-1.4
		c-1.1-0.5-2.3-0.9-3.4-1.4c-1.1-0.5-2.2-0.9-3.3-1.4c-0.3-0.1-0.5-0.2-0.8-0.3c-0.2-0.1-0.4-0.3-0.6-0.4c-0.4-0.3-0.9-0.5-1.4-0.7
		c-0.5-0.2-1-0.4-1.4-0.7c-0.5-0.2-0.9-0.6-1.4-0.8c-0.2-0.1-0.2-0.3-0.2-0.5c0-0.3,0-0.6,0.1-0.9c0.1-0.6,0.2-1.2,0.3-1.8
		c0.4-2.3,0.9-4.6,1.7-6.8c0.7-2.2,1.6-4.4,2.7-6.5c1.1-2.1,2.3-4.1,3.6-6c1.4-1.9,2.9-3.7,4.5-5.5c0.4-0.4,0.8-0.8,1.2-1.2
		c0.2-0.2,0.4-0.4,0.6-0.6c0.1-0.2,0.2-0.4,0.2-0.6C70.4,118.5,67.9,56.1,67.9,55.8"/>
</g>
</svg>
