<?xml version="1.0" encoding="utf-8"?>
<!-- Generator: Adobe Illustrator 18.0.0, SVG Export Plug-In . SVG Version: 6.00 Build 0)  -->
<!DOCTYPE svg PUBLIC "-//W3C//DTD SVG 1.1//EN" "http://www.w3.org/Graphics/SVG/1.1/DTD/svg11.dtd">
<svg version="1.1" id="Layer_1" xmlns="http://www.w3.org/2000/svg" xmlns:xlink="http://www.w3.org/1999/xlink" x="0px" y="0px"
	 viewBox="0 0 1920 1080" enable-background="new 0 0 1920 1080" xml:space="preserve">
<g display="none">
	<g display="inline">
		<defs>
			<rect id="SVGID_1_" x="213.2" y="151.2" width="1076.2" height="950.4"/>
		</defs>
		<clipPath id="SVGID_2_">
			<use xlink:href="#SVGID_1_"  overflow="visible"/>
		</clipPath>
		<g clip-path="url(#SVGID_2_)">
			<path d="M1298,994.1v-27.5h-51.8v-128h6.5v-45.9h12.4c10.8,0,20-8.6,20-20v-23.2c0-10.8-8.6-20-20-20h-12.4v-38.3h-6.5v-115h6.5
				v-38.3h12.4c10.8,0,20-8.6,20-20v-23.2c0-10.8-8.6-20-20-20h-12.4v-45.4h-6.5v-128h51.8v-27.5h-51.8v-29.2h51.8v-27.5h-51.8
				v-47.5c0-3.8-0.5-7.6-1.1-11.3H1217c1.1,3.8,1.6,7.6,1.6,11.3v47.5h-51.8v-58.9h-52.4v58.9H852.5h-66.4v-223h-0.5h-52.4l0,0v223
				h-66.4H405.4v-58.9H353v58.9h-51.8v-47.5c0-3.8,0.5-8.1,1.6-11.3h-28.6c-0.5,3.8-1.1,7.6-1.1,11.3v47.5h-51.8v27.5h51.8v29.2
				h-51.8v27.5h51.8v128h-6.5v45.4h-12.4c-10.8,0-20,8.6-20,20v23.8c0,10.8,8.6,20,20,20h12.4v38.3h6.5v115h-6.5v38.3h-12.4
				c-10.8,0-20,8.6-20,20v23.2c0,10.8,8.6,20,20,20h12.4v45.9h6.5v127.4h-51.8v27.5h51.8v29.2h-51.8v27.5h51.8v47.5
				c0,3.8,0.5,7.6,1.1,11.3h28.1c-1.1-3.8-1.6-7.6-1.6-11.3v-47.5h51.8v58.9h52.4v-58.9h261.9h66.4v231.7h0.5h52.4h0.5v-231.7h66.4
				H1115v58.9h52.4v-58.9h51.8v47.5c0,3.8-0.5,8.1-1.6,11.3h28.1c0.5-3.8,1.1-7.6,1.1-11.3v-47.5h51.8v-27.5h-52.4v-29.2H1298z
				 M980.5,717.7v-1.1l0,0c-0.5-5.9-2.7-11.3-4.9-16.7h45.9c-1.6,5.4-3.2,10.8-3.8,16.7h-1.1V756c0,20.5-16.2,36.7-36.2,37.8v-69.1
				h0.5C981.1,722,981.1,719.8,980.5,717.7z M953,719.3v74.5c-30.2,3.8-54.5,28.6-56.7,59.4l0,0v79.9c0,20-15.7,36.2-35.6,37.8l0,0
				h-74.5V799.7v-25.4h7h1.6V742h16.7h0.5c10.8,0,20-8.6,20-20v-7.6l0,0v-7h43.2v-7.6h68.6C948.7,705.2,951.9,711.7,953,719.3z
				 M658.7,970.4L658.7,970.4c-20-1.1-35.6-17.3-35.6-37.3v-79.9l0,0c-2.2-30.8-26.5-55.6-56.7-59.4v-74.5c1.1-7.6,4.3-14.6,9.2-20
				h68.6v7.6h43.2v7v7.6c0,10.8,8.6,20,20,20h0.5h16.7v32.4h1.6h7v25.4l0,0v171.2L658.7,970.4L658.7,970.4z M538.8,724.7v69.1
				c-20-1.1-36.2-17.3-36.2-37.8v-39.4h-1.1c-0.5-5.9-1.6-11.3-3.8-16.7h45.9c-2.2,5.4-3.8,10.8-4.9,16.7l0,0v1.1
				C538.3,719.8,538.3,722,538.8,724.7L538.8,724.7z M405.4,838.6h8.6v-39.4h36.7v-74.5l0,0c0-11.3,7.6-20.5,17.8-23.8
				c3.8,5.9,5.9,12.4,5.9,19.4h1.1V756c0,35.6,28.6,64.3,63.7,65.3v107.5c0,20.5-16.7,37.8-37.8,37.8h-96.1V838.6z M300.7,691.7
				v-115h5.9v-38.3h32.9v78.8c0,5.9,1.1,11.9,2.7,17.3c-1.6,5.4-2.7,11.3-2.7,17.3v78.8h-32.9v-38.3h-5.9V691.7z M538.8,550.3v1.1
				l0,0c0.5,5.9,2.7,11.3,4.9,16.7h-45.9c1.6-5.4,3.2-10.8,3.8-16.7h1.1v-39.4c0-20.5,16.2-36.7,36.2-37.8v69.1h-0.5
				C538.3,545.9,538.3,548.1,538.8,550.3z M566.3,548.6v-74.5c30.2-3.8,54.5-28.6,56.7-59.4l0,0v-79.9c0-20,15.7-36.2,35.6-37.8l0,0
				h74.5v196.6h-7h-1.6V526h-16.7h-0.5c-10.8,0-20,8.6-20,20v7.6v7h-43.2v7.6h-68.6C570.7,562.7,567.4,556.2,566.3,548.6z
				 M476.2,621h168.5v8.6h43.2v8.6h-43.2v8.6H476.2c-12.4,0-24.3,3.2-35.1,8.6c-1.6,0-3.2-0.5-4.3-0.5h-31.3v-1.1
				c-14.6,0-27-8.6-33.5-20.5c6.5-11.9,18.9-20.5,33.5-20.5v-1.1h30.8c1.6,0,3.2-0.5,4.3-0.5C451.3,617.8,463.2,621,476.2,621z
				 M398.4,546.5c0.5,14.6,5.4,27.5,12.4,38.9h-16.7v1.6c-9.7,1.6-18.9,5.9-27,11.3v-60.5h30.8L398.4,546.5L398.4,546.5z
				 M367.1,669.6c8.1,5.4,16.7,9.7,27,11.3v1.6h16.7c-7.6,11.3-11.9,24.3-12.4,38.9h-0.5v8.1h-30.8
				C367.1,729.5,367.1,669.6,367.1,669.6z M860.6,297.5L860.6,297.5c20,1.1,35.6,17.3,35.6,37.3v79.9l0,0
				c2.2,30.8,26.5,55.6,56.7,59.4v74.5c-1.1,7.6-4.3,14.6-9.2,20h-69.1v-7.6h-43.2v-15.1c0-10.8-8.6-20-20-20H811h-16.7v-32.4h-1.6
				h-7v-25.4V297.5H860.6z M980.5,543.2v-69.1c20,1.1,36.2,17.3,36.2,37.8v39.4h1.1c0.5,5.9,1.6,11.3,3.8,16.7h-45.9
				c2.2-5.4,3.8-10.8,4.9-16.7l0,0v-1.1C981.1,548.1,981.1,545.9,980.5,543.2L980.5,543.2z M1113.9,429.3h-8.6v39.4h-36.7v74.5l0,0
				c0,11.3-7.6,20.5-17.8,23.8c-3.8-5.9-5.9-12.4-5.9-19.4h-1.1v-35.6c0-35.6-28.6-64.3-63.7-65.3V339.1c0-20.5,16.7-37.8,37.8-37.8
				h95.6v128H1113.9z M1152.2,598.3c-8.1-5.4-16.7-9.7-27-11.3v-1.6h-16.7c7.6-11.3,11.9-24.3,12.4-38.9h0.5v-8.1h30.8V598.3z
				 M1043.2,646.9H874.7v-8.6h-43.2v-8.6h43.2V621h168.5c12.4,0,24.3-3.2,35.1-8.6c1.6,0,3.2,0.5,4.3,0.5h31.3v1.1
				c14.6,0,27,8.1,33.5,20.5c-6.5,11.9-18.9,20.5-33.5,20.5v1.1h-31.3c-1.6,0-3.2,0.5-4.9,0.5
				C1067.5,650.7,1056.1,646.9,1043.2,646.9z M1120.9,722c-0.5-14.6-5.4-27.5-12.4-38.9h16.7v-1.6c9.7-1.6,18.9-5.9,27-11.3v60.5
				h-30.8L1120.9,722L1120.9,722z M1177.1,634c1.6-5.4,2.7-11.3,2.7-17.3v-78.8h32.9v38.3h5.9v115h-5.9v38.3h-32.9v-78.8
				C1179.8,645.3,1178.7,639.4,1177.1,634z M1166.3,244.6h51.8v29.2h-51.8V244.6z M1166.3,301.3h51.8v128h-5.9v45.4h-32.9v-6.5h-5.9
				v-39.4h-7.6V301.3H1166.3z M852.5,244.6h261.9v29.2h-95.6c-35.1,0-63.7,27.5-65.3,62.1l0,0v109.6c-16.7-3.8-29.2-18.9-29.2-36.7
				v-74c0-36.2-29.2-65.3-65.3-65.3v0.5h-5.9h-67v-24.8h66.4V244.6z M405.4,244.6h261.9h65.9V270h-66.4h-5.9v-0.5
				c-36.2,0-65.3,29.2-65.3,65.3v74.5c0,17.8-12.4,32.9-29.2,36.7V336.4l0,0c-1.6-34.6-30.2-62.1-65.3-62.1h-95.6V244.6z
				 M405.4,301.3H501c20.5,0,37.8,16.7,37.8,37.8v107.5c-35.1,1.1-63.7,29.7-63.7,65.3v35.6H474c0,7-2.2,14-5.9,19.4
				c-10.3-3.2-17.8-12.4-17.8-23.8l0,0v-74.5h-36.7v-39.4h-8.6v-128H405.4z M300.7,244.6h51.8v29.2h-51.8V244.6z M300.7,301.3h51.8
				v128h-7.6v39.4H339v6.5h-32.4v-45.4h-5.9V301.3z M352.5,1023.3h-51.8v-29.2h51.8V1023.3z M352.5,966.6h-51.8v-128h5.9v-45.4h32.9
				v6.5h5.9v39.4h7.6v127.4H352.5z M666.8,1023.3H405.4v-29.2H501c35.1,0,63.7-27.5,65.3-62.1l0,0V822.4
				c16.7,3.8,29.2,18.9,29.2,36.7v74.5c0,36.2,29.2,65.3,65.3,65.3v-0.5h5.9h66.4v24.8L666.8,1023.3L666.8,1023.3z M1113.9,1023.3
				H852.5h-66.4v-24.8h66.4h5.9v0.5c36.2,0,65.3-29.2,65.3-65.3v-75.1c0-17.8,12.4-32.9,29.2-36.7v109.6l0,0
				c1.6,34.6,30.2,62.1,65.3,62.1h95.6V1023.3z M1113.9,966.6h-95.6c-20.5,0-37.8-16.7-37.8-37.8V821.3
				c35.1-1.1,63.7-29.7,63.7-65.3v-35.6h1.1c0-7,2.2-14,5.9-19.4c10.3,3.2,17.8,12.4,17.8,23.8l0,0v74.5h36.7v39.4h8.6v128H1113.9z
				 M1218.7,1023.3h-51.8v-29.2h51.8V1023.3z M1218.7,966.6h-51.8v-128h7.6v-39.4h5.9v-6.5h32.9v45.4h5.9v128.5H1218.7z"/>
			<path d="M800.7,720.9h-82.6c-3.2,0-5.9-2.7-5.9-5.9V543.8c0-3.2,2.7-5.9,5.9-5.9h82.6c3.2,0,5.9,2.7,5.9,5.9V715
				C806.6,718.2,803.9,720.9,800.7,720.9z"/>
		</g>
	</g>
</g>
<path display="none" d="M1285.6,471.4v-67h-138.2v-91.3c0-36.7-30.2-67-67-67h-90.2V99.9h-66.4v146.3H812V102.6h-93.4v144.2H591.2
	V99.9h-67v146.3h-89.6c-36.7,0-67,30.2-67,67v91.3H229.4v67h138.2v111.2H229.4v93.4h138.2v127.4H229.4v67h138.2v89.1
	c0,36.7,30.2,67,67,67h90.2v148h67v-148h127.4v145.8h93.4v-145.8h111.2v148h67v-148h90.2c36.7,0,67-30.2,67-67v-89.1h138.2v-67
	h-138.2V676.1H1284v-93.4h-136.1V471.4H1285.6z M1067.5,669.6H929.2v-64.8h137.7v64.8H1067.5z M869.3,721.4c0,4.3-1.1,8.1-2.7,11.3
	c-4.3,9.2-13.5,15.1-23.8,15.1H672.2c-10.8,0-19.4-6.5-23.8-15.1c-1.6-3.2-2.7-7.6-2.7-11.3v-51.8v-64.8v-53.5
	c0-4.3,1.1-8.1,2.7-11.3c4.3-9.2,13.5-15.1,23.8-15.1h170.6c10.8,0,19.4,6.5,23.8,15.1c1.6,3.2,2.7,7.6,2.7,11.3v53.5v64.8
	L869.3,721.4L869.3,721.4z M789.9,946.1h-64.8V808.4h64.8V946.1z M447.5,604.8h137.7v64.8H447.5V604.8z M725.1,326.7h64.8v137.7
	h-64.8V326.7z M1067.5,326.7v211.1H929.2v-46.4c0-14.6-11.9-27-27-27h-45.9V326.7H1067.5z M447.5,326.7h210.6v137.7h-45.9
	c-14.6,0-27,11.9-27,27v47H447.5V326.7z M447.5,946.1V736.6h137.7v44.8c0,14.6,11.9,27,27,27h45.9v137.7H447.5z M1067.5,946.1H856.9
	V808.4h45.9c14.6,0,27-11.9,27-27v-44.8h137.7V946.1z"/>
<g>
	<path d="M751.1,265.6c0-1.6,0-3.4-0.2-5.1c-0.4-2.3-2.1-2.6-4.1-3c-9-1.4-477.2-71.6-481.2-72.4c-1.9-0.4-3.9-0.9-5.3-2.5
		s-10.6-52.9-11.5-57.2c-0.5-3.2,1.2-13.6,4.6-14.3c4.2-0.9,8.5-1.2,12.7-1.8c9.4-1.2,18.5-2.6,27.9-3.9c18.4-2.5,36.7-5.1,55.2-7.8
		c18.5-2.6,36.9-5.3,55.4-7.9c18.4-2.6,36.7-5.3,55.1-7.9s36.9-5.3,55.2-7.8c18.4-2.6,36.7-5.3,55.1-7.8c18.4-2.6,36.9-5.3,55.2-7.9
		c18.4-2.6,36.5-5.3,54.9-7.6c18.5-2.3,36.9-4.8,55.4-7.2c18.4-2.5,36.9-4.8,55.2-7.2s36.7-4.8,55.1-7.2c18.4-2.5,36.7-4.9,55.1-7.2
		c18.5-2.3,37.1-4.9,55.6-7.2c18.5-2.5,36.9-4.8,55.4-7.2c9.2-1.2,18.2-3,27.5-3.2c9.2,0,18.4,0.9,27.5,1.4
		c9.2,0.7,18.4,1.2,27.5,1.8c9.4,0.5,18.5,1.4,27.9,1.9c18.4,1.1,36.9,2.3,55.2,3.7c9.2,0.7,18.4,1.1,27.4,1.6
		c9.2,0.7,18.4,1.6,27.7,2.1c18.5,1.1,36.9,2.3,55.2,3.5c18.5,1.2,37.1,2.5,55.6,3.7c18.5,1.2,36.9,2.6,55.4,3.7
		c18.4,1.1,36.9,2.6,55.2,3.9c9.2,0.5,18.5,0.9,27.7,1.6c9.2,0.7,18.5,1.4,27.7,2.1c18.5,1.4,37.1,2.5,55.8,3.5
		c4.4,0.4,9,0.7,13.4,0.9c2.3,0.2,4.6,0.2,6.9,0.4c1.4,0,3,0.2,4.1,0.9c0.9,0.5,1.2,1.4,1.4,2.5c0.4,1.9,0.2,4.1,0,6
		c-0.4,4.4-1.2,9-1.9,13.4c-0.7,4.6-1.2,9.2-1.9,13.8c-0.5,3.5-0.5,7.2-3.7,9.4c-1.8,1.2-3.9,2.1-5.8,3c-1.9,1.1-4.1,2.1-6,3
		c-4.1,2.1-8.3,4.2-12.4,6.4c-16.4,8.5-32.6,16.9-49.1,25.1c-16.4,8.3-32.8,16.9-49.2,25.1c-16.6,8.3-33.2,16.4-49.6,24.9
		c-16.6,8.5-33.2,16.9-49.6,25.2c-8.1,4.1-16.2,8.1-24.5,12.4c-8.3,4.2-16.2,8.5-24.4,12.5c-8.3,4.1-16.4,8.3-24.7,12.4
		c-1.9,1.1-3.7,2.1-5.6,3.2c-1.4,0.7-2.3,1.6-2.6,3.4c-0.7,4.4-0.9,9.2-1.4,13.8c-1.8,18.5-3,37.1-4.6,55.4
		c-1.6,18.4-2.6,36.7-4.2,55.1c-1.6,18.4-2.8,36.7-4.4,55.1c-1.4,18.4-2.8,36.7-4.4,54.9c-1.6,18.5-2.8,36.9-4.4,55.4
		c-1.4,18.4-2.8,36.9-4.4,55.2c-0.4,4.6-0.7,9.2-1.1,13.9c-0.2,2.3-0.4,4.6-0.5,6.9c0,0.9-0.2,2.1-0.2,3.2c0.2,0.7,0,0.4,0.5,0.5
		c0.2,0.2,0.5,0.2,0.7,0.2c0.7,0.2,1.4,0.4,2.1,0.5c9,2.1,17.8,4.4,26.8,6.5c4.4,1.1,8.8,2.1,13.4,3.2c3.7,0.9,7.4,1.4,10.6,3.7
		c2.8,2.1,4.8,5.5,6.5,8.5c2.1,3.5,4.1,7.2,6,10.9c7.6,15.2,13.4,31.6,16.2,48.4c1.4,9,2.3,18,2.1,27.2c0,9.2-0.4,18.2-1.9,27.4
		c-1.6,8.8-3.4,17.6-5.8,26.3c-2.5,8.5-5.8,16.6-9.4,24.5c-3.5,8.1-7.8,15.9-12.2,23.5c-4.6,7.8-9.4,15.2-14.6,22.4
		c-5.3,7.2-10.9,14.1-16.6,21.2c-5.3,6.7-10.9,13.1-17.1,19.1c-6.2,6-12.7,11.6-19.1,17.5c-3.2,3-6.5,5.8-9.9,8.6
		c-3.2,2.6-6.5,5.3-9.5,8.1c-6.5,6-14.1,10.9-21.4,16.1c-7.2,5.3-14.5,10.8-22.1,15.7c-7.4,4.8-15,9.2-22.6,13.8
		c-7.9,4.8-15.7,9.7-23.6,14.5c-15.5,9.4-31.6,17.6-47.8,25.6s-32.8,15.2-49.6,22.2c-16.8,7.1-33.9,13.4-51,19.8
		c-17.1,6.2-34.2,12.7-51.7,18c-8.6,2.6-17.5,5.1-26.1,7.8c-4.1,1.2-8.5,3-12.9,3.2c-2.1,0.2-4.2-0.2-6.2-0.7
		c-0.9-0.2-1.9,0-2.8-0.2c-1.1,0-2.1-0.2-3-0.4c-3.9-0.9-7.6-2.8-11.1-4.4c-4.2-1.8-8.5-3.5-12.5-5.3c-8.5-3.5-17.1-7.2-25.6-10.8
		c-8.5-3.5-16.9-7.1-25.2-10.8c-8.3-3.7-16.8-6.9-25.1-10.4c-8.5-3.5-16.8-7.4-25.2-10.9c-8.6-3.7-17.3-7.2-25.8-10.9
		c-8.5-3.5-17.1-7.2-25.6-10.8c-2.1-0.9-4.2-1.6-6.2-2.6c-1.8-0.9-3.2-2.3-4.9-3.4c-3.4-2.1-6.9-3.9-10.4-5.6
		c-3.7-1.8-7.4-3.4-10.9-5.3c-3.7-1.9-7.1-4.4-10.8-6.5c-1.4-0.7-1.8-2.1-1.9-3.7c-0.2-2.3,0-4.6,0.4-6.9c0.7-4.6,1.6-9,2.3-13.6
		c3.2-17.6,7.2-34.9,12.9-51.9c5.6-17.1,12.5-33.7,20.6-49.8c8.1-15.9,17.3-31.2,27.5-45.7c10.4-14.6,21.9-28.6,34.1-41.8
		c3-3.2,6-6.4,9.2-9.5c1.4-1.6,3.2-3,4.6-4.6c1.1-1.4,1.2-3,1.2-4.6C770,744.9,751.3,267.9,751.1,265.6"/>
</g>
</svg>
