<?xml version="1.0" encoding="utf-8"?>
<!-- Generator: Adobe Illustrator 18.0.0, SVG Export Plug-In . SVG Version: 6.00 Build 0)  -->
<!DOCTYPE svg PUBLIC "-//W3C//DTD SVG 1.1//EN" "http://www.w3.org/Graphics/SVG/1.1/DTD/svg11.dtd">
<svg version="1.1" id="Layer_1" xmlns="http://www.w3.org/2000/svg" xmlns:xlink="http://www.w3.org/1999/xlink" x="0px" y="0px"
	 viewBox="0 0 90 90" enable-background="new 0 0 90 90" xml:space="preserve">
<g>
	<path d="M33.8,28.6c0-0.1,0-0.2,0-0.3c0-0.2-0.1-0.2-0.3-0.2C32.9,27.9,2,23.3,1.7,23.3c-0.1,0-0.3-0.1-0.4-0.2
		c-0.1-0.1-0.7-3.5-0.8-3.8c0-0.2,0.1-0.9,0.3-0.9c0.3-0.1,0.6-0.1,0.8-0.1C2.4,18.2,3,18.1,3.6,18c1.2-0.2,2.4-0.3,3.7-0.5
		c1.2-0.2,2.4-0.4,3.7-0.5c1.2-0.2,2.4-0.4,3.6-0.5c1.2-0.2,2.4-0.4,3.7-0.5c1.2-0.2,2.4-0.4,3.6-0.5c1.2-0.2,2.4-0.4,3.7-0.5
		c1.2-0.2,2.4-0.4,3.6-0.5c1.2-0.2,2.4-0.3,3.7-0.5c1.2-0.2,2.4-0.3,3.7-0.5c1.2-0.2,2.4-0.3,3.6-0.5c1.2-0.2,2.4-0.3,3.6-0.5
		c1.2-0.2,2.5-0.3,3.7-0.5c1.2-0.2,2.4-0.3,3.7-0.5c0.6-0.1,1.2-0.2,1.8-0.2c0.6,0,1.2,0.1,1.8,0.1c0.6,0,1.2,0.1,1.8,0.1
		c0.6,0,1.2,0.1,1.8,0.1c1.2,0.1,2.4,0.2,3.7,0.2c0.6,0,1.2,0.1,1.8,0.1c0.6,0,1.2,0.1,1.8,0.1c1.2,0.1,2.4,0.2,3.7,0.2
		c1.2,0.1,2.5,0.2,3.7,0.2c1.2,0.1,2.4,0.2,3.7,0.2c1.2,0.1,2.4,0.2,3.7,0.3c0.6,0,1.2,0.1,1.8,0.1s1.2,0.1,1.8,0.1
		c1.2,0.1,2.5,0.2,3.7,0.2c0.3,0,0.6,0,0.9,0.1c0.2,0,0.3,0,0.5,0c0.1,0,0.2,0,0.3,0.1c0.1,0,0.1,0.1,0.1,0.2c0,0.1,0,0.3,0,0.4
		c0,0.3-0.1,0.6-0.1,0.9c0,0.3-0.1,0.6-0.1,0.9c0,0.2,0,0.5-0.2,0.6c-0.1,0.1-0.3,0.1-0.4,0.2c-0.1,0.1-0.3,0.1-0.4,0.2
		c-0.3,0.1-0.5,0.3-0.8,0.4c-1.1,0.6-2.2,1.1-3.2,1.7c-1.1,0.5-2.2,1.1-3.3,1.7c-1.1,0.5-2.2,1.1-3.3,1.6c-1.1,0.6-2.2,1.1-3.3,1.7
		c-0.5,0.3-1.1,0.5-1.6,0.8c-0.5,0.3-1.1,0.6-1.6,0.8c-0.5,0.3-1.1,0.5-1.6,0.8c-0.1,0.1-0.2,0.1-0.4,0.2c-0.1,0-0.2,0.1-0.2,0.2
		c0,0.3-0.1,0.6-0.1,0.9c-0.1,1.2-0.2,2.5-0.3,3.7c-0.1,1.2-0.2,2.4-0.3,3.6s-0.2,2.4-0.3,3.6c-0.1,1.2-0.2,2.4-0.3,3.6
		c-0.1,1.2-0.2,2.4-0.3,3.7c-0.1,1.2-0.2,2.4-0.3,3.7c0,0.3,0,0.6-0.1,0.9c0,0.2,0,0.3,0,0.5c0,0.1,0,0.1,0,0.2c0,0,0,0,0,0
		c0,0,0,0,0,0c0,0,0.1,0,0.1,0c0.6,0.1,1.2,0.3,1.8,0.4c0.3,0.1,0.6,0.1,0.9,0.2c0.2,0.1,0.5,0.1,0.7,0.2c0.2,0.1,0.3,0.4,0.4,0.6
		c0.1,0.2,0.3,0.5,0.4,0.7c0.5,1,0.9,2.1,1.1,3.2c0.1,0.6,0.2,1.2,0.1,1.8c0,0.6,0,1.2-0.1,1.8c-0.1,0.6-0.2,1.2-0.4,1.7
		c-0.2,0.6-0.4,1.1-0.6,1.6c-0.2,0.5-0.5,1.1-0.8,1.6c-0.3,0.5-0.6,1-1,1.5c-0.4,0.5-0.7,0.9-1.1,1.4c-0.4,0.4-0.7,0.9-1.1,1.3
		c-0.4,0.4-0.8,0.8-1.3,1.2c-0.2,0.2-0.4,0.4-0.7,0.6c-0.2,0.2-0.4,0.4-0.6,0.5c-0.4,0.4-0.9,0.7-1.4,1.1c-0.5,0.4-1,0.7-1.5,1
		c-0.5,0.3-1,0.6-1.5,0.9c-0.5,0.3-1,0.6-1.6,1c-1,0.6-2.1,1.2-3.2,1.7c-1.1,0.5-2.2,1-3.3,1.5c-1.1,0.5-2.2,0.9-3.4,1.3
		c-1.1,0.4-2.3,0.8-3.4,1.2c-0.6,0.2-1.2,0.3-1.7,0.5c-0.3,0.1-0.6,0.2-0.9,0.2c-0.1,0-0.3,0-0.4,0c-0.1,0-0.1,0-0.2,0
		c-0.1,0-0.1,0-0.2,0c-0.3-0.1-0.5-0.2-0.7-0.3c-0.3-0.1-0.6-0.2-0.8-0.4c-0.6-0.2-1.1-0.5-1.7-0.7c-0.6-0.2-1.1-0.5-1.7-0.7
		s-1.1-0.5-1.7-0.7c-0.6-0.2-1.1-0.5-1.7-0.7c-0.6-0.2-1.1-0.5-1.7-0.7c-0.6-0.2-1.1-0.5-1.7-0.7c-0.1-0.1-0.3-0.1-0.4-0.2
		C30,77,30,76.9,29.8,76.8c-0.2-0.1-0.5-0.3-0.7-0.4c-0.2-0.1-0.5-0.2-0.7-0.4c-0.2-0.1-0.5-0.3-0.7-0.4c-0.1,0-0.1-0.1-0.1-0.2
		c0-0.2,0-0.3,0-0.5c0-0.3,0.1-0.6,0.2-0.9c0.2-1.2,0.5-2.3,0.9-3.4c0.4-1.1,0.8-2.2,1.4-3.3c0.5-1.1,1.1-2.1,1.8-3
		c0.7-1,1.4-1.9,2.3-2.8c0.2-0.2,0.4-0.4,0.6-0.6c0.1-0.1,0.2-0.2,0.3-0.3c0.1-0.1,0.1-0.2,0.1-0.3C35.1,60.3,33.8,28.7,33.8,28.6"
		/>
</g>
</svg>
