<?xml version="1.0" encoding="utf-8"?>
<!-- Generator: Adobe Illustrator 18.0.0, SVG Export Plug-In . SVG Version: 6.00 Build 0)  -->
<!DOCTYPE svg PUBLIC "-//W3C//DTD SVG 1.1//EN" "http://www.w3.org/Graphics/SVG/1.1/DTD/svg11.dtd">
<svg version="1.1" id="Layer_1" xmlns="http://www.w3.org/2000/svg" xmlns:xlink="http://www.w3.org/1999/xlink" x="0px" y="0px"
	 viewBox="-174 0 953 792" enable-background="new -174 0 953 792" xml:space="preserve">
<path d="M255.2,344.9l-75.8-108.8c-3.6-2.7-8.2-4.2-12.8-4.2H65.4h-8.3H-2.2c-4.6,0-9.2,1.5-12.8,4.2l-75.8,108.8
	c-2.7,2.3-7.6,7.6-7.6,16.4v26.5c0,7.1,3.4,13.3,8.7,17.3c0.8,0.6,1.7,1.2,2.6,1.7c0.9,0.5,1.9,0.9,2.9,1.3c2.3,0.8,4.8,1.3,7.4,1.3
	l0,0H54v82.4c-28.6,3.1-54.9,11.1-74.5,23.1l-4,2.4v2.9v41.6v2.9l4,2.4C5,582.8,41.7,591.8,80.1,591.8c0.7,0,1.4,0,2.1,0
	c0.7,0,1.4,0,2.1,0c38.4,0,75.1-8.9,100.6-24.5l4-2.4v-2.9v-41.6v-2.9l-4-2.4c-19.7-12-46-20.1-74.5-23.1v-82.4h130.9
	c11.9,0,21.6-9.7,21.6-21.6v-26.5C262.8,352.5,257.9,347.2,255.2,344.9z M-47.7,345.8l46.6-96.3h51.3h22.1h93.1l46.6,96.3H-47.7z"/>
<g>
	<path d="M595.9,189.5c4.1,0,7.7-3.6,7.7-7.6c0-4.1-3.5-7.6-7.7-7.7c-4.1-0.1-7.9,3.7-7.8,7.8C588.2,186,591.8,189.5,595.9,189.5z"
		/>
	<path d="M560,189.5c4.1,0,7.7-3.6,7.7-7.6c0-4.1-3.5-7.6-7.7-7.7c-4.1-0.1-7.9,3.7-7.8,7.8C552.3,186,555.9,189.5,560,189.5z"/>
	<path d="M579.1,112.2c-70.3,0-127.4,57.2-127.4,127.4s57.2,127.4,127.4,127.4s127.4-57.2,127.4-127.4S649.3,112.2,579.1,112.2z
		 M522.4,266.6c0,4-1.5,7.4-4.9,9.7c-6.8,4.6-15.8,0.5-17-7.5c-0.1-0.9-0.2-1.9-0.2-2.8c0-15.1-0.1-30.2,0-45.4
		c0-4.8,2.2-8.4,6.7-10.4c6.7-3,14.4,1.4,15.3,8.8c0.1,1.2,0.2,2.4,0.2,3.5c0,7.1,0,14.2,0,21.3C522.4,251.4,522.4,259,522.4,266.6z
		 M552.9,165c1.6-0.9,1.6-0.9,0.7-2.5c-2.2-4-4.4-8-6.6-11.9c-0.1-0.3-0.3-0.5-0.4-0.8c-0.4-0.8-0.2-1.5,0.6-1.8
		c0.7-0.4,1.4-0.2,1.9,0.6c0.9,1.6,1.8,3.3,2.7,4.9c1.5,2.8,3.1,5.6,4.6,8.4c0.5,0.9,0.9,1,1.9,0.6c5.6-2.3,11.5-3.6,17.6-4
		c8.3-0.5,16.2,0.9,23.8,4c1.1,0.4,1.5,0.1,2-0.8c2.3-4.2,4.6-8.4,6.9-12.6c0.2-0.4,0.5-1,0.9-1.1c0.4-0.2,1.2-0.1,1.5,0.2
		c0.3,0.3,0.5,1.1,0.3,1.6c-0.4,1.1-1,2-1.6,3c-1.8,3.3-3.6,6.5-5.4,9.8c-0.8,1.5-0.8,1.5,0.7,2.4c9.9,5.6,17.3,13.5,21.4,24.2
		c1.7,4.3,2.6,8.8,2.8,13.5c0,1.1-0.2,1.5-1.4,1.5c-32.6,0-65.2,0-97.8,0c-0.4,0-0.7,0-1.3-0.1C529.6,186.4,538.1,173.7,552.9,165z
		 M618.4,295.8c-2.7,0.2-5.5,0.2-8.3,0.2c-1.1,0-1.4,0.4-1.4,1.4c0,7.7,0,15.5,0,23.2c0,5.5-4.5,10.5-9.6,10.9
		c-6.9,0.6-11.5-4.1-12.3-9.5c-0.1-0.5,0-1.1,0-1.7c0-7.6,0-15.1,0-22.7c0-1.3-0.3-1.7-1.6-1.7c-4.2,0.1-8.3,0.1-12.5,0
		c-1.1,0-1.4,0.4-1.4,1.5c0,7.7,0,15.4,0,23.1c0,5.6-4.4,10.5-9.6,11c-6.9,0.6-11.5-4.1-12.3-9.4c-0.1-0.5,0-1.1,0-1.7
		c0-7.6,0-15.2,0-22.8c0-1.2-0.3-1.6-1.6-1.6c-3,0-6.2,0.1-9.1-0.3c-5.9-0.9-9.8-6.3-9.8-12.1c0.1-18,0-35.9,0-53.9
		c0-5.6,0-11.2,0-16.8c0-1.2,0.4-1.5,1.5-1.5c16.2,0,32.5,0,48.7,0c16.1,0,32.3,0,48.4,0c1.7,0,1.7,0,1.7,1.7
		c0,23.5-0.1,47.1,0,70.6C629.3,289.7,624.5,295.5,618.4,295.8z M658,267c0,5.1-3.4,9.5-8.3,10.8c-6.6,1.7-13-2.7-13.7-9.4
		c-0.1-1.1-0.2-2.3-0.2-3.4c0-14.6,0-29.2,0-43.8c0-3.4,1-6.5,3.5-8.8c3.3-3,7.1-3.8,11.2-2.3c4.1,1.4,6.5,4.4,7.2,8.6
		c0.2,1,0.2,2,0.2,3c0,7.4,0,14.8,0,22.2C658,251.5,658,259.3,658,267z"/>
</g>
<path d="M579.1,402.6c-70.3,0-127.4,57.2-127.4,127.4s57.2,127.4,127.4,127.4c70.3,0,127.4-57.2,127.4-127.4
	S649.3,402.6,579.1,402.6z M568.8,467.8l78.5-11.4v68.7h-78.5V467.8z M559,591.4l-58.9-8.1l0-48.4H559V591.4z M559,525.1h-58.9
	l-0.1-47.9l58.9-8V525.1z M647.4,603.7l-78.5-11.1V535h78.6L647.4,603.7z"/>
<g>
	<path d="M419.1,252.1v-27.9h-55.9V378h-55.9v28h55.9v153.8h55.9v-28h-28V405.9v-28V252.1H419.1z"/>
</g>
</svg>
