<?xml version="1.0" encoding="UTF-8" standalone="no"?>
<!-- Generator: Adobe Illustrator 18.0.0, SVG Export Plug-In . SVG Version: 6.00 Build 0)  -->

<svg
   xmlns:dc="http://purl.org/dc/elements/1.1/"
   xmlns:cc="http://creativecommons.org/ns#"
   xmlns:rdf="http://www.w3.org/1999/02/22-rdf-syntax-ns#"
   xmlns:svg="http://www.w3.org/2000/svg"
   xmlns="http://www.w3.org/2000/svg"
   xmlns:sodipodi="http://sodipodi.sourceforge.net/DTD/sodipodi-0.dtd"
   xmlns:inkscape="http://www.inkscape.org/namespaces/inkscape"
   version="1.1"
   id="Layer_1"
   x="0px"
   y="0px"
   viewBox="0 0 200 200"
   enable-background="new 0 0 1224 792"
   xml:space="preserve"
   inkscape:version="0.48.5 r10040"
   width="100%"
   height="100%"
   sodipodi:docname="Extended Warranty 03.svg"><metadata
     id="metadata17"><rdf:RDF><cc:Work
         rdf:about=""><dc:format>image/svg+xml</dc:format><dc:type
           rdf:resource="http://purl.org/dc/dcmitype/StillImage" /></cc:Work></rdf:RDF></metadata><defs
     id="defs15" /><sodipodi:namedview
     pagecolor="#ffffff"
     bordercolor="#666666"
     borderopacity="1"
     objecttolerance="10"
     gridtolerance="10"
     guidetolerance="10"
     inkscape:pageopacity="0"
     inkscape:pageshadow="2"
     inkscape:window-width="1252"
     inkscape:window-height="934"
     id="namedview13"
     showgrid="false"
     inkscape:snap-page="true"
     inkscape:zoom="2.7544813"
     inkscape:cx="81.21891"
     inkscape:cy="91.581971"
     inkscape:window-x="93"
     inkscape:window-y="110"
     inkscape:window-maximized="0"
     inkscape:current-layer="Layer_1" /><g
     id="g3001"><g
       transform="translate(15.318882,1.722851)"
       id="g2994"><g
         id="g3"
         transform="matrix(0.25316263,0,0,0.25316263,-65.982419,-1.7228477)"><path
           d="m 830.008,406.247 -28.412,-41.426 c -15.923,5.644 -32.742,9.345 -50.183,10.863 l 19.165,33.633 H 363.505 L 435.624,260.273 H 549.25 c -4.201,-8.756 -7.802,-17.851 -10.735,-27.236 H 433.827 c -7.162,0 -14.222,2.304 -19.857,6.509 l -117.295,168.38 c -4.157,3.528 -11.692,11.793 -11.692,25.44 v 40.943 c 0,18.379 14.976,33.355 33.355,33.355 h 202.585 v 128.142 c -45.321,5.635 -86.076,19.407 -115.893,39.634 l -5.607,3.831 v 64.434 l 5.635,3.831 c 39.763,26.995 99.061,42.47 162.641,42.47 59.452,0 116.192,-13.848 155.733,-37.986 l 6.134,-3.758 v -73.545 l -6.134,-3.758 C 692.961,652.35 652.292,639.892 608.065,635.135 V 507.665 H 810.65 c 18.379,0 33.355,-14.976 33.355,-33.355 v -40.943 c 10e-4,-13.897 -9.466,-23.39 -13.997,-27.12 z"
           id="path5"
           inkscape:connector-curvature="0" /><path
           d="m 736.323,78 c -40.711,0 -73.713,33.002 -73.713,73.713 0,40.711 33.003,73.713 73.713,73.713 40.71,0 73.713,-33.002 73.713,-73.713 C 810.036,111.002 777.033,78 736.323,78 z m 0,132.39 c -32.407,0 -58.677,-26.271 -58.677,-58.677 0,-32.406 26.271,-58.677 58.677,-58.677 32.407,0 58.677,26.271 58.677,58.677 0,32.406 -26.271,58.677 -58.677,58.677 z"
           id="path7"
           inkscape:connector-curvature="0" /><path
           d="M 893.728,107.559 C 888.407,93.941 881.37,81.185 872.884,69.548 866.098,60.243 858.379,51.652 849.873,43.923 845.869,40.281 841.693,36.834 837.35,33.587 828.67,27.098 819.35,21.418 809.493,16.67 807.028,15.486 804.53,14.354 802.001,13.287 796.946,11.148 791.762,9.247 786.469,7.599 770.584,2.662 753.698,0 736.189,0 689.502,0 647.23,18.923 616.635,49.522 c -7.65,7.65 -14.569,16.026 -20.646,25.021 -1.518,2.248 -2.984,4.536 -4.399,6.859 -5.648,9.297 -10.424,19.18 -14.219,29.541 -1.893,5.175 -3.545,10.476 -4.934,15.878 -3.476,13.505 -5.325,27.663 -5.325,42.257 0,21.449 4.036,41.946 11.322,60.829 3.674,9.518 8.153,18.637 13.408,27.236 29.411,48.105 82.192,80.336 142.554,80.964 0.6,0.008 1.192,0.044 1.792,0.044 16.409,0 32.251,-2.38 47.255,-6.742 1.007,-0.29 2.027,-0.547 3.024,-0.858 5.293,-1.647 10.476,-3.545 15.532,-5.684 2.53,-1.072 5.026,-2.199 7.492,-3.388 9.856,-4.749 19.176,-10.424 27.857,-16.917 4.342,-3.247 8.519,-6.695 12.523,-10.331 10.634,-9.667 20.03,-20.667 27.93,-32.742 6.315,-9.659 11.669,-20.002 15.927,-30.898 2.126,-5.446 3.983,-11.029 5.547,-16.736 3.907,-14.262 5.993,-29.278 5.993,-44.778 0,-21.707 -4.088,-42.454 -11.54,-61.518 z m -61.954,74.609 c -5.271,2.169 -10.273,4.227 -15.69,6.456 1.669,5.333 3.279,10.475 5.055,16.15 -5.621,0.792 -10.972,1.547 -16.845,2.374 0.335,5.634 0.655,11.033 1.013,17.049 -4.219,-0.543 -8.164,-0.858 -12.025,-1.604 -2.357,-0.455 -4.035,-0.369 -4.996,0.984 l 28.527,57.096 -39.847,-26.565 -13.283,26.565 -16.434,-41.418 c -3.453,4.064 -17.008,4.133 -20.355,0.235 l -16.341,41.182 -13.282,-26.565 -39.848,26.565 28.382,-56.806 c -0.1,-0.456 -0.198,-0.909 -0.298,-1.367 -5.638,0.628 -10.877,1.211 -16.808,1.871 0.292,-4.428 0.358,-8.396 0.868,-12.305 0.463,-3.549 -0.59,-5.106 -4.339,-5.247 -3.952,-0.149 -7.882,-0.907 -12.431,-1.475 1.685,-5.555 3.241,-10.684 4.926,-16.237 -5.124,-2.102 -10.12,-4.152 -15.616,-6.406 2.927,-4.825 5.716,-9.421 8.754,-14.428 -4.461,-3.313 -8.795,-6.532 -13.56,-10.07 4.041,-3.918 7.913,-7.672 12.145,-11.775 -3.481,-4.286 -6.891,-8.485 -10.657,-13.122 4.939,-2.819 9.627,-5.495 14.675,-8.377 -2.297,-5.096 -4.502,-9.99 -6.91,-15.334 5.623,-1.598 10.797,-3.069 16.222,-4.61 -0.999,-5.53 -1.937,-10.716 -2.972,-16.442 4.381,-0.092 8.467,-0.469 12.505,-0.177 3.77,0.272 4.926,-1.175 4.916,-4.729 -0.012,-3.939 0.457,-7.88 0.753,-12.371 4.379,1.102 8.255,1.906 12.017,3.077 3.294,1.025 5.129,0.59 5.946,-3.235 0.825,-3.859 2.425,-7.552 3.871,-11.873 4.942,2.595 9.711,5.1 14.932,7.842 3.084,-4.668 6.127,-9.274 9.335,-14.131 4.285,3.902 8.293,7.55 12.183,11.092 4.395,-3.673 8.553,-7.148 12.974,-10.843 2.393,3.669 4.915,7.282 7.152,11.063 1.351,2.283 2.642,2.675 4.947,1.274 3.751,-2.28 7.677,-4.271 11.856,-6.563 1.907,5.492 3.674,10.581 5.564,16.023 5.46,-1.33 10.696,-2.606 16.36,-3.986 0.479,5.594 0.928,10.829 1.397,16.305 5.471,0.36 10.831,0.713 16.672,1.098 -0.814,5.257 -1.637,10.573 -2.522,16.293 5.399,1.439 10.484,2.794 16.226,4.324 -2.309,5.12 -4.512,10.005 -6.93,15.368 4.797,2.732 9.471,5.394 14.721,8.384 -3.527,4.397 -6.881,8.577 -10.544,13.144 3.93,3.777 7.816,7.512 12.154,11.682 -4.521,3.44 -8.897,6.771 -13.5,10.273 3.01,4.789 5.893,9.373 8.985,14.292 z"
           id="path9"
           inkscape:connector-curvature="0" /></g><polygon
         points="712.001,132.25 749.501,132.25 749.501,144.75 712.001,144.75 712.001,182.25 762.001,182.25 762.001,169.75 724.501,169.75 724.501,157.25 762.001,157.25 762.001,119.75 712.001,119.75 "
         id="polygon11"
         transform="matrix(0.25316263,0,0,0.25316263,-65.982419,-1.7228477)" /></g></g></svg>