<?xml version="1.0" encoding="utf-8"?>
<!-- Generator: Adobe Illustrator 18.0.0, SVG Export Plug-In . SVG Version: 6.00 Build 0)  -->
<!DOCTYPE svg PUBLIC "-//W3C//DTD SVG 1.1//EN" "http://www.w3.org/Graphics/SVG/1.1/DTD/svg11.dtd">
<svg version="1.1" id="Layer_1" xmlns="http://www.w3.org/2000/svg" xmlns:xlink="http://www.w3.org/1999/xlink" x="0px" y="0px"
	 viewBox="0 0 1224 792" enable-background="new 0 0 1224 792" xml:space="preserve">
<g display="none">
	<g display="inline">
		<defs>
			<rect id="SVGID_1_" x="64.332" y="110.88" width="789.228" height="696.96"/>
		</defs>
		<clipPath id="SVGID_2_">
			<use xlink:href="#SVGID_1_"  overflow="visible"/>
		</clipPath>
		<g clip-path="url(#SVGID_2_)">
			<path d="M859.896,729.036V708.84H821.88v-93.852h4.752v-33.66h9.108c7.92,0,14.652-6.336,14.652-14.652v-17.028
				c0-7.92-6.336-14.652-14.652-14.652h-9.108V506.88h-4.752v-84.348h4.752v-28.116h9.108c7.92,0,14.652-6.336,14.652-14.652
				v-17.028c0-7.92-6.336-14.652-14.652-14.652h-9.108V314.82h-4.752v-93.852h38.016v-20.196H821.88v-21.384h38.016v-20.196H821.88
				v-34.848c0-2.772-0.396-5.544-0.792-8.316h-20.592c0.792,2.772,1.188,5.544,1.188,8.316v34.848h-38.016v-43.164h-38.412v43.164
				h-192.06h-48.708V-4.356h-0.396H445.68h0v163.548h-48.708H205.308v-43.164h-38.412v43.164H128.88v-34.848
				c0-2.772,0.396-5.94,1.188-8.316H109.08c-0.396,2.772-0.792,5.544-0.792,8.316v34.848H70.272v20.196h38.016v21.384H70.272v20.196
				h38.016v93.852h-4.752v33.264h-9.108c-7.92,0-14.652,6.336-14.652,14.652v17.424c0,7.92,6.336,14.652,14.652,14.652h9.108v28.116
				h4.752v84.348h-4.752v28.116h-9.108c-7.92,0-14.652,6.336-14.652,14.652v17.028c0,7.92,6.336,14.652,14.652,14.652h9.108v33.66
				h4.752v93.456H70.272v20.196h38.016v21.384H70.272v20.196h38.016v34.848c0,2.772,0.396,5.544,0.792,8.316h20.592
				c-0.792-2.772-1.188-5.544-1.188-8.316v-34.848H166.5v43.164h38.412v-43.164h192.06h48.708V940.5h0.396h38.412h0.396V770.616
				h48.708h192.06v43.164h38.412v-43.164h38.016v34.848c0,2.772-0.396,5.94-1.188,8.316h20.592c0.396-2.772,0.792-5.544,0.792-8.316
				v-34.848h38.016V750.42H821.88v-21.384H859.896z M627.048,526.284v-0.792l0,0c-0.396-4.356-1.98-8.316-3.564-12.276h33.66
				c-1.188,3.96-2.376,7.92-2.772,12.276h-0.792V554.4c0,15.048-11.88,26.928-26.532,27.72v-50.688h0.396
				C627.444,529.452,627.444,527.868,627.048,526.284z M606.852,527.472v54.648c-22.176,2.772-39.996,20.988-41.58,43.56l0,0v58.608
				c0,14.652-11.484,26.532-26.136,27.72l0,0h-54.648V586.476v-18.612h5.148h1.188v-23.76H503.1h0.396
				c7.92,0,14.652-6.336,14.652-14.652v-5.544l0,0v-5.148h31.68v-5.544h50.292C603.684,517.176,606.06,521.928,606.852,527.472z
				 M391.032,711.612L391.032,711.612c-14.652-0.792-26.136-12.672-26.136-27.324V625.68l0,0
				c-1.584-22.572-19.404-40.788-41.58-43.56v-54.648c0.792-5.544,3.168-10.692,6.732-14.652h50.292v5.544h31.68v5.148v5.544
				c0,7.92,6.336,14.652,14.652,14.652h0.396h12.276v23.76h1.188h5.148v18.612l0,0v125.532L391.032,711.612L391.032,711.612z
				 M303.12,531.432v50.688c-14.652-0.792-26.532-12.672-26.532-27.72v-28.908h-0.792c-0.396-4.356-1.188-8.316-2.772-12.276h33.66
				c-1.584,3.96-2.772,7.92-3.564,12.276l0,0v0.792C302.724,527.868,302.724,529.452,303.12,531.432L303.12,531.432z
				 M205.308,614.988h6.336V586.08h26.928v-54.648l0,0c0-8.316,5.544-15.048,13.068-17.424c2.772,4.356,4.356,9.108,4.356,14.256
				h0.792V554.4c0,26.136,20.988,47.124,46.728,47.916v78.804c0,15.048-12.276,27.72-27.72,27.72h-70.488V614.988z M128.484,507.276
				v-84.348h4.356v-28.116h24.156v57.816c0,4.356,0.792,8.712,1.98,12.672c-1.188,3.96-1.98,8.316-1.98,12.672v57.816H132.84
				v-28.116h-4.356V507.276z M303.12,403.524v0.792l0,0c0.396,4.356,1.98,8.316,3.564,12.276h-33.66
				c1.188-3.96,2.376-7.92,2.772-12.276h0.792v-28.908c0-15.048,11.88-26.928,26.532-27.72v50.688h-0.396
				C302.724,400.356,302.724,401.94,303.12,403.524z M323.316,402.336v-54.648c22.176-2.772,39.996-20.988,41.58-43.56l0,0V245.52
				c0-14.652,11.484-26.532,26.136-27.72l0,0h54.648v144.144h-5.148h-1.188v23.76h-12.276h-0.396
				c-7.92,0-14.652,6.336-14.652,14.652v5.544v5.148h-31.68v5.544h-50.292C326.484,412.632,324.108,407.88,323.316,402.336z
				 M257.184,455.4h123.552v6.336h31.68v6.336h-31.68v6.336H257.184c-9.108,0-17.82,2.376-25.74,6.336
				c-1.188,0-2.376-0.396-3.168-0.396h-22.968v-0.792c-10.692,0-19.8-6.336-24.552-15.048c4.752-8.712,13.86-15.048,24.552-15.048
				v-0.792h22.572c1.188,0,2.376-0.396,3.168-0.396C238.968,453.024,247.68,455.4,257.184,455.4z M200.16,400.752
				c0.396,10.692,3.96,20.196,9.108,28.512h-12.276v1.188c-7.128,1.188-13.86,4.356-19.8,8.316v-44.352h22.572L200.16,400.752
				L200.16,400.752z M177.192,491.04c5.94,3.96,12.276,7.128,19.8,8.316v1.188h12.276c-5.544,8.316-8.712,17.82-9.108,28.512h-0.396
				v5.94h-22.572C177.192,534.996,177.192,491.04,177.192,491.04z M539.136,218.196L539.136,218.196
				c14.652,0.792,26.136,12.672,26.136,27.324v58.608l0,0c1.584,22.572,19.404,40.788,41.58,43.56v54.648
				c-0.792,5.544-3.168,10.692-6.732,14.652h-50.688v-5.544h-31.68v-11.088c0-7.92-6.336-14.652-14.652-14.652h-0.396h-12.276
				v-23.76h-1.188h-5.148v-18.612V218.196H539.136z M627.048,398.376v-50.688c14.652,0.792,26.532,12.672,26.532,27.72v28.908h0.792
				c0.396,4.356,1.188,8.316,2.772,12.276h-33.66c1.584-3.96,2.772-7.92,3.564-12.276l0,0v-0.792
				C627.444,401.94,627.444,400.356,627.048,398.376L627.048,398.376z M724.86,314.82h-6.336v28.908h-26.928v54.648l0,0
				c0,8.316-5.544,15.048-13.068,17.424c-2.772-4.356-4.356-9.108-4.356-14.256h-0.792v-26.136
				c0-26.136-20.988-47.124-46.728-47.916v-78.804c0-15.048,12.276-27.72,27.72-27.72h70.092v93.852H724.86z M752.976,438.768
				c-5.94-3.96-12.276-7.128-19.8-8.316v-1.188H720.9c5.544-8.316,8.712-17.82,9.108-28.512h0.396v-5.94h22.572V438.768z
				 M672.984,474.408H549.432v-6.336h-31.68v-6.336h31.68V455.4h123.552c9.108,0,17.82-2.376,25.74-6.336
				c1.188,0,2.376,0.396,3.168,0.396h22.968v0.792c10.692,0,19.8,5.94,24.552,15.048c-4.752,8.712-13.86,15.048-24.552,15.048v0.792
				h-22.968c-1.188,0-2.376,0.396-3.564,0.396C690.804,477.18,682.488,474.408,672.984,474.408z M730.008,529.452
				c-0.396-10.692-3.96-20.196-9.108-28.512h12.276v-1.188c7.128-1.188,13.86-4.356,19.8-8.316v44.352h-22.572L730.008,529.452
				L730.008,529.452z M771.192,464.904c1.188-3.96,1.98-8.316,1.98-12.672v-57.816h24.156v28.116h4.356v84.348h-4.356v28.116
				h-24.156V477.18C773.172,473.22,772.38,468.864,771.192,464.904z M763.272,179.388h38.016v21.384h-38.016V179.388z
				 M763.272,220.968h38.016v93.852h-4.356v33.264h-24.156v-4.752h-4.356v-28.908h-5.544v-93.456H763.272z M533.196,179.388h192.06
				v21.384h-70.092c-25.74,0-46.728,20.196-47.916,45.54l0,0V326.7c-12.276-2.772-21.384-13.86-21.384-26.928V245.52
				c0-26.532-21.384-47.916-47.916-47.916V198h-4.356h-49.104v-18.216h48.708V179.388z M205.308,179.388h192.06h48.312V198h-48.708
				h-4.356v-0.396c-26.532,0-47.916,21.384-47.916,47.916v54.648c0,13.068-9.108,24.156-21.384,26.928v-80.388l0,0
				c-1.188-25.344-22.176-45.54-47.916-45.54h-70.092V179.388z M205.308,220.968H275.4c15.048,0,27.72,12.276,27.72,27.72v78.804
				c-25.74,0.792-46.728,21.78-46.728,47.916v26.136H255.6c0,5.148-1.584,10.296-4.356,14.256
				c-7.524-2.376-13.068-9.108-13.068-17.424l0,0v-54.648h-26.928V314.82h-6.336v-93.852H205.308z M128.484,179.388H166.5v21.384
				h-38.016V179.388z M128.484,220.968H166.5v93.852h-5.544v28.908H156.6v4.752h-23.76v-33.264h-4.356V220.968z M166.5,750.42
				h-38.016v-21.384H166.5V750.42z M166.5,708.84h-38.016v-93.852h4.356v-33.264h24.156v4.752h4.356v28.908h5.544v93.456H166.5z
				 M396.972,750.42H205.308v-21.384H275.4c25.74,0,46.728-20.196,47.916-45.54l0,0v-80.388
				c12.276,2.772,21.384,13.86,21.384,26.928v54.648c0,26.532,21.384,47.916,47.916,47.916v-0.396h4.356h48.708v18.216
				L396.972,750.42L396.972,750.42z M724.86,750.42H533.196h-48.708v-18.216h48.708h4.356v0.396
				c26.532,0,47.916-21.384,47.916-47.916V629.64c0-13.068,9.108-24.156,21.384-26.928V683.1l0,0
				c1.188,25.344,22.176,45.54,47.916,45.54h70.092V750.42z M724.86,708.84h-70.092c-15.048,0-27.72-12.276-27.72-27.72v-78.804
				c25.74-0.792,46.728-21.78,46.728-47.916v-26.136h0.792c0-5.148,1.584-10.296,4.356-14.256
				c7.524,2.376,13.068,9.108,13.068,17.424l0,0v54.648h26.928v28.908h6.336v93.852H724.86z M801.684,750.42h-38.016v-21.384h38.016
				V750.42z M801.684,708.84h-38.016v-93.852h5.544V586.08h4.356v-4.752h24.156v33.264h4.356v94.248H801.684z"/>
			<path d="M495.18,528.66h-60.588c-2.376,0-4.356-1.98-4.356-4.356V398.772c0-2.376,1.98-4.356,4.356-4.356h60.588
				c2.376,0,4.356,1.98,4.356,4.356v125.532C499.536,526.68,497.556,528.66,495.18,528.66z"/>
		</g>
	</g>
</g>
<path display="none" d="M850.788,345.708v-49.104H749.412V229.68c0-26.928-22.176-49.104-49.104-49.104h-66.132V73.26h-48.708
	v107.316h-81.972V75.24h-68.508v105.732h-93.456V73.26h-49.104v107.316h-65.736c-26.928,0-49.104,22.176-49.104,49.104v66.924
	H76.212v49.104h101.376v81.576H76.212v68.508h101.376v93.456H76.212v49.104h101.376v65.34c0,26.928,22.176,49.104,49.104,49.104
	h66.132V861.3h49.104V752.796h93.456v106.92h68.508v-106.92h81.576V861.3h49.104V752.796h66.132
	c26.928,0,49.104-22.176,49.104-49.104v-65.34h101.376v-49.104H749.808v-93.456H849.6v-68.508h-99.792v-81.576H850.788z
	 M690.804,491.04H589.428v-47.52h100.98v47.52H690.804z M545.472,529.056c0,3.168-0.792,5.94-1.98,8.316
	c-3.168,6.732-9.9,11.088-17.424,11.088H400.932c-7.92,0-14.256-4.752-17.424-11.088c-1.188-2.376-1.98-5.544-1.98-8.316V491.04
	v-47.52v-39.204c0-3.168,0.792-5.94,1.98-8.316c3.168-6.732,9.9-11.088,17.424-11.088h125.136c7.92,0,14.256,4.752,17.424,11.088
	c1.188,2.376,1.98,5.544,1.98,8.316v39.204v47.52L545.472,529.056L545.472,529.056z M487.26,693.792h-47.52v-100.98h47.52V693.792z
	 M236.196,443.52h100.98v47.52h-100.98V443.52z M439.74,239.58h47.52v100.98h-47.52V239.58z M690.804,239.58v154.836H589.428V360.36
	c0-10.692-8.712-19.8-19.8-19.8h-33.66V239.58H690.804z M236.196,239.58h154.44v100.98h-33.66c-10.692,0-19.8,8.712-19.8,19.8
	v34.452h-100.98V239.58z M236.196,693.792V540.144h100.98v32.868c0,10.692,8.712,19.8,19.8,19.8h33.66v100.98H236.196z
	 M690.804,693.792h-154.44v-100.98h33.66c10.692,0,19.8-8.712,19.8-19.8v-32.868h100.98V693.792z"/>
<g>
	<path d="M830.008,406.247l-28.412-41.426c-15.923,5.644-32.742,9.345-50.183,10.863l19.165,33.633H363.505l72.119-149.044H549.25
		c-4.201-8.756-7.802-17.851-10.735-27.236H433.827c-7.162,0-14.222,2.304-19.857,6.509l-117.295,168.38
		c-4.157,3.528-11.692,11.793-11.692,25.44v40.943c0,18.379,14.976,33.355,33.355,33.355h202.585v128.142
		c-45.321,5.635-86.076,19.407-115.893,39.634l-5.607,3.831v64.434l5.635,3.831c39.763,26.995,99.061,42.47,162.641,42.47
		c59.452,0,116.192-13.848,155.733-37.986l6.134-3.758v-73.545l-6.134-3.758c-30.471-18.609-71.14-31.067-115.367-35.824V507.665
		h202.585c18.379,0,33.355-14.976,33.355-33.355v-40.943C844.006,419.47,834.539,409.977,830.008,406.247z"/>
	<path d="M736.323,78c-40.711,0-73.713,33.002-73.713,73.713s33.003,73.713,73.713,73.713s73.713-33.002,73.713-73.713
		S777.033,78,736.323,78z M736.323,210.39c-32.407,0-58.677-26.271-58.677-58.677s26.271-58.677,58.677-58.677
		c32.407,0,58.677,26.271,58.677,58.677S768.729,210.39,736.323,210.39z"/>
	<path d="M893.728,107.559c-5.321-13.618-12.358-26.374-20.844-38.011c-6.786-9.305-14.505-17.896-23.011-25.625
		c-4.004-3.642-8.18-7.089-12.523-10.336c-8.68-6.489-18-12.169-27.857-16.917c-2.465-1.184-4.963-2.316-7.492-3.383
		c-5.055-2.139-10.239-4.04-15.532-5.688C770.584,2.662,753.698,0,736.189,0c-46.687,0-88.959,18.923-119.554,49.522
		c-7.65,7.65-14.569,16.026-20.646,25.021c-1.518,2.248-2.984,4.536-4.399,6.859c-5.648,9.297-10.424,19.18-14.219,29.541
		c-1.893,5.175-3.545,10.476-4.934,15.878c-3.476,13.505-5.325,27.663-5.325,42.257c0,21.449,4.036,41.946,11.322,60.829
		c3.674,9.518,8.153,18.637,13.408,27.236c29.411,48.105,82.192,80.336,142.554,80.964c0.6,0.008,1.192,0.044,1.792,0.044
		c16.409,0,32.251-2.38,47.255-6.742c1.007-0.29,2.027-0.547,3.024-0.858c5.293-1.647,10.476-3.545,15.532-5.684
		c2.53-1.072,5.026-2.199,7.492-3.388c9.856-4.749,19.176-10.424,27.857-16.917c4.342-3.247,8.519-6.695,12.523-10.331
		c10.634-9.667,20.03-20.667,27.93-32.742c6.315-9.659,11.669-20.002,15.927-30.898c2.126-5.446,3.983-11.029,5.547-16.736
		c3.907-14.262,5.993-29.278,5.993-44.778C905.268,147.37,901.18,126.623,893.728,107.559z M831.774,182.168
		c-5.271,2.169-10.273,4.227-15.69,6.456c1.669,5.333,3.279,10.475,5.055,16.15c-5.621,0.792-10.972,1.547-16.845,2.374
		c0.335,5.634,0.655,11.033,1.013,17.049c-4.219-0.543-8.164-0.858-12.025-1.604c-2.357-0.455-4.035-0.369-4.996,0.984
		l28.527,57.096l-39.847-26.565l-13.283,26.565l-16.434-41.418c-3.453,4.064-17.008,4.133-20.355,0.235l-16.341,41.182
		l-13.282-26.565l-39.848,26.565l28.382-56.806c-0.1-0.456-0.198-0.909-0.298-1.367c-5.638,0.628-10.877,1.211-16.808,1.871
		c0.292-4.428,0.358-8.396,0.868-12.305c0.463-3.549-0.59-5.106-4.339-5.247c-3.952-0.149-7.882-0.907-12.431-1.475
		c1.685-5.555,3.241-10.684,4.926-16.237c-5.124-2.102-10.12-4.152-15.616-6.406c2.927-4.825,5.716-9.421,8.754-14.428
		c-4.461-3.313-8.795-6.532-13.56-10.07c4.041-3.918,7.913-7.672,12.145-11.775c-3.481-4.286-6.891-8.485-10.657-13.122
		c4.939-2.819,9.627-5.495,14.675-8.377c-2.297-5.096-4.502-9.99-6.91-15.334c5.623-1.598,10.797-3.069,16.222-4.61
		c-0.999-5.53-1.937-10.716-2.972-16.442c4.381-0.092,8.467-0.469,12.505-0.177c3.77,0.272,4.926-1.175,4.916-4.729
		c-0.012-3.939,0.457-7.88,0.753-12.371c4.379,1.102,8.255,1.906,12.017,3.077c3.294,1.025,5.129,0.59,5.946-3.235
		c0.825-3.859,2.425-7.552,3.871-11.873c4.942,2.595,9.711,5.1,14.932,7.842c3.084-4.668,6.127-9.274,9.335-14.131
		c4.285,3.902,8.293,7.55,12.183,11.092c4.395-3.673,8.553-7.148,12.974-10.843c2.393,3.669,4.915,7.282,7.152,11.063
		c1.351,2.283,2.642,2.675,4.947,1.274c3.751-2.28,7.677-4.271,11.856-6.563c1.907,5.492,3.674,10.581,5.564,16.023
		c5.46-1.33,10.696-2.606,16.36-3.986c0.479,5.594,0.928,10.829,1.397,16.305c5.471,0.36,10.831,0.713,16.672,1.098
		c-0.814,5.257-1.637,10.573-2.522,16.293c5.399,1.439,10.484,2.794,16.226,4.324c-2.309,5.12-4.512,10.005-6.93,15.368
		c4.797,2.732,9.471,5.394,14.721,8.384c-3.527,4.397-6.881,8.577-10.544,13.144c3.93,3.777,7.816,7.512,12.154,11.682
		c-4.521,3.44-8.897,6.771-13.5,10.273C825.799,172.665,828.682,177.249,831.774,182.168z"/>
</g>
<polygon points="712.001,132.25 749.501,132.25 749.501,144.75 712.001,144.75 712.001,182.25 762.001,182.25 762.001,169.75 
	724.501,169.75 724.501,157.25 762.001,157.25 762.001,119.75 712.001,119.75 "/>
</svg>
