<?xml version="1.0" encoding="UTF-8" standalone="no"?>
<!-- Created with Inkscape (http://www.inkscape.org/) -->

<svg
   xmlns:dc="http://purl.org/dc/elements/1.1/"
   xmlns:cc="http://creativecommons.org/ns#"
   xmlns:rdf="http://www.w3.org/1999/02/22-rdf-syntax-ns#"
   xmlns:svg="http://www.w3.org/2000/svg"
   xmlns="http://www.w3.org/2000/svg"
   xmlns:sodipodi="http://sodipodi.sourceforge.net/DTD/sodipodi-0.dtd"
   xmlns:inkscape="http://www.inkscape.org/namespaces/inkscape"
   version="1.1"
   width="1912.9971"
   height="754.60217"
   id="svg3004"
   xml:space="preserve"
   inkscape:version="0.48.4 r9939"
   sodipodi:docname="hex.svg"><sodipodi:namedview
     pagecolor="#ffffff"
     bordercolor="#666666"
     borderopacity="1"
     objecttolerance="10"
     gridtolerance="10"
     guidetolerance="10"
     inkscape:pageopacity="0"
     inkscape:pageshadow="2"
     inkscape:window-width="1298"
     inkscape:window-height="843"
     id="namedview72"
     showgrid="false"
     fit-margin-top="0"
     fit-margin-left="0"
     fit-margin-right="0"
     fit-margin-bottom="0"
     inkscape:zoom="0.45283071"
     inkscape:cx="965.01211"
     inkscape:cy="226.99415"
     inkscape:window-x="0"
     inkscape:window-y="0"
     inkscape:window-maximized="0"
     inkscape:current-layer="svg3004" /><metadata
     id="metadata3010"><rdf:RDF><cc:Work
         rdf:about=""><dc:format>image/svg+xml</dc:format><dc:type
           rdf:resource="http://purl.org/dc/dcmitype/StillImage" /><dc:title /></cc:Work></rdf:RDF></metadata><defs
     id="defs3008" /><g
     transform="matrix(1.25,0,0,-1.25,-51.304813,1122.8906)"
     id="g3012"><g
       transform="translate(217.2826,643.434)"
       id="g3014"><path
         d="M 0,0 -58.098,100.628 0,201.267 l 116.194,0 58.1,-100.639 L 116.194,0 0,0 z"
         id="path3016"
         style="fill:none;stroke:#b7b7b7;stroke-width:1;stroke-linecap:butt;stroke-linejoin:miter;stroke-miterlimit:10;stroke-opacity:1;stroke-dasharray:none"
         inkscape:connector-curvature="0" /></g><g
       transform="translate(276.6131,541.5786)"
       id="g3018"><path
         d="M 0,0 -58.1,100.638 0,201.267 l 116.191,0 L 174.304,100.638 116.191,0 0,0 z"
         id="path3020"
         style="fill:none;stroke:#b7b7b7;stroke-width:1;stroke-linecap:butt;stroke-linejoin:miter;stroke-miterlimit:10;stroke-opacity:1;stroke-dasharray:none"
         inkscape:connector-curvature="0" /></g><g
       transform="translate(335.9436,444.6669)"
       id="g3022"><path
         d="M 0,0 -58.101,100.633 0,201.271 l 116.198,0 L 174.299,100.633 116.198,0 0,0 z"
         id="path3024"
         style="fill:none;stroke:#b7b7b7;stroke-width:1;stroke-linecap:butt;stroke-linejoin:miter;stroke-miterlimit:10;stroke-opacity:1;stroke-dasharray:none"
         inkscape:connector-curvature="0" /></g><g
       transform="translate(394.2918,344.7897)"
       id="g3026"><path
         d="M 0,0 -58.103,100.633 0,201.266 l 116.186,0 L 174.294,100.633 116.186,0 0,0 z"
         id="path3028"
         style="fill:none;stroke:#b7b7b7;stroke-width:1;stroke-linecap:butt;stroke-linejoin:miter;stroke-miterlimit:10;stroke-opacity:1;stroke-dasharray:none"
         inkscape:connector-curvature="0" /></g><g
       transform="translate(101.6124,442.3247)"
       id="g3030"><path
         d="M 0,0 -58.108,100.638 0,201.272 l 116.189,0 L 174.294,100.638 116.189,0 0,0 z"
         id="path3032"
         style="fill:none;stroke:#b7b7b7;stroke-width:1;stroke-linecap:butt;stroke-linejoin:miter;stroke-miterlimit:10;stroke-opacity:1;stroke-dasharray:none"
         inkscape:connector-curvature="0" /></g><g
       transform="translate(509.8545,643.6255)"
       id="g3034"><path
         d="M 0,0 -58.095,100.633 0,201.272 l 116.194,0 L 174.299,100.633 116.194,0 0,0 z"
         id="path3036"
         style="fill:none;stroke:#b7b7b7;stroke-width:1;stroke-linecap:butt;stroke-linejoin:miter;stroke-miterlimit:10;stroke-opacity:1;stroke-dasharray:none"
         inkscape:connector-curvature="0" /></g><g
       transform="translate(393.2999,543.5522)"
       id="g3038"><path
         d="M 0,0 -58.1,100.628 0,201.266 l 116.194,0 L 174.299,100.628 116.194,0 0,0 z"
         id="path3040"
         style="fill:none;stroke:#b7b7b7;stroke-width:1;stroke-linecap:butt;stroke-linejoin:miter;stroke-miterlimit:10;stroke-opacity:1;stroke-dasharray:none"
         inkscape:connector-curvature="0" /></g><g
       transform="translate(510.9785,543.5522)"
       id="g3042"><path
         d="M 0,0 -58.105,100.628 0,201.266 l 116.194,0 58.1,-100.638 L 116.194,0 0,0 z"
         id="path3044"
         style="fill:none;stroke:#b7b7b7;stroke-width:1;stroke-linecap:butt;stroke-linejoin:miter;stroke-miterlimit:10;stroke-opacity:1;stroke-dasharray:none"
         inkscape:connector-curvature="0" /></g><g
       transform="translate(630.2875,543.5522)"
       id="g3046"><path
         d="M 0,0 -58.103,100.628 0,201.266 l 116.198,0 L 174.299,100.628 116.198,0 0,0 z"
         id="path3048"
         style="fill:none;stroke:#b7b7b7;stroke-width:1;stroke-linecap:butt;stroke-linejoin:miter;stroke-miterlimit:10;stroke-opacity:1;stroke-dasharray:none"
         inkscape:connector-curvature="0" /></g><g
       transform="translate(184.5764,792.5283)"
       id="g3050"><path
         d="M 0,0 -29.189,50.552 0,101.109 l 58.375,0 L 87.569,50.552 58.375,0 0,0 z"
         id="path3052"
         style="fill:none;stroke:#b7b7b7;stroke-width:1;stroke-linecap:butt;stroke-linejoin:miter;stroke-miterlimit:10;stroke-opacity:1;stroke-dasharray:none"
         inkscape:connector-curvature="0" /></g><g
       transform="translate(424.8725,594.7527)"
       id="g3054"><path
         d="M 0,0 -29.191,50.552 0,101.116 l 58.368,0 L 87.559,50.552 58.368,0 0,0 z"
         id="path3056"
         style="fill:none;stroke:#b7b7b7;stroke-width:1;stroke-linecap:butt;stroke-linejoin:miter;stroke-miterlimit:10;stroke-opacity:1;stroke-dasharray:none"
         inkscape:connector-curvature="0" /></g><g
       transform="translate(249.8471,495.8669)"
       id="g3058"><path
         d="M 0,0 -29.194,50.557 0,101.117 l 58.363,0 L 87.564,50.557 58.363,0 0,0 z"
         id="path3060"
         style="fill:none;stroke:#b7b7b7;stroke-width:1;stroke-linecap:butt;stroke-linejoin:miter;stroke-miterlimit:10;stroke-opacity:1;stroke-dasharray:none"
         inkscape:connector-curvature="0" /></g><g
       transform="translate(70.8251,592.1209)"
       id="g3062"><path
         d="M 0,0 -29.194,50.552 0,101.112 l 58.366,0 L 87.57,50.552 58.366,0 0,0 z"
         id="path3064"
         style="fill:none;stroke:#b7b7b7;stroke-width:1;stroke-linecap:butt;stroke-linejoin:miter;stroke-miterlimit:10;stroke-opacity:1;stroke-dasharray:none"
         inkscape:connector-curvature="0" /></g><g
       transform="translate(479.3472,793.7163)"
       id="g3066"><path
         d="M 0,0 -29.196,50.552 0,101.109 l 58.368,0 L 87.57,50.552 58.368,0 0,0 z"
         id="path3068"
         style="fill:none;stroke:#b7b7b7;stroke-width:1;stroke-linecap:butt;stroke-linejoin:miter;stroke-miterlimit:10;stroke-opacity:1;stroke-dasharray:none"
         inkscape:connector-curvature="0" /></g><g
       transform="translate(719.2853,496.1861)"
       id="g3070"><path
         d="M 0,0 -29.189,50.557 0,101.109 l 58.375,0 L 87.574,50.557 58.375,0 0,0 z"
         id="path3072"
         style="fill:none;stroke:#b7b7b7;stroke-width:1;stroke-linecap:butt;stroke-linejoin:miter;stroke-miterlimit:10;stroke-opacity:1;stroke-dasharray:none"
         inkscape:connector-curvature="0" /></g><g
       transform="translate(478.2673,295.1307)"
       id="g3074"><path
         d="M 0,0 -29.189,50.552 0,101.109 l 58.37,0 L 87.569,50.552 58.37,0 0,0 z"
         id="path3076"
         style="fill:none;stroke:#b7b7b7;stroke-width:1;stroke-linecap:butt;stroke-linejoin:miter;stroke-miterlimit:10;stroke-opacity:1;stroke-dasharray:none"
         inkscape:connector-curvature="0" /></g><g
       transform="translate(981.2827,646.4363)"
       id="g3078"><path
         d="M 0,0 -58.098,100.628 0,201.267 l 116.194,0 58.1,-100.639 L 116.194,0 0,0 z"
         id="path3080"
         style="fill:none;stroke:#b7b7b7;stroke-width:1;stroke-linecap:butt;stroke-linejoin:miter;stroke-miterlimit:10;stroke-opacity:1;stroke-dasharray:none"
         inkscape:connector-curvature="0" /></g><g
       transform="translate(1040.6132,544.5809)"
       id="g3082"><path
         d="M 0,0 -58.1,100.638 0,201.267 l 116.191,0 L 174.304,100.638 116.191,0 0,0 z"
         id="path3084"
         style="fill:none;stroke:#b7b7b7;stroke-width:1;stroke-linecap:butt;stroke-linejoin:miter;stroke-miterlimit:10;stroke-opacity:1;stroke-dasharray:none"
         inkscape:connector-curvature="0" /></g><g
       transform="translate(1099.9436,447.6693)"
       id="g3086"><path
         d="M 0,0 -58.101,100.633 0,201.271 l 116.198,0 L 174.299,100.633 116.198,0 0,0 z"
         id="path3088"
         style="fill:none;stroke:#b7b7b7;stroke-width:1;stroke-linecap:butt;stroke-linejoin:miter;stroke-miterlimit:10;stroke-opacity:1;stroke-dasharray:none"
         inkscape:connector-curvature="0" /></g><g
       transform="translate(1158.2917,347.7921)"
       id="g3090"><path
         d="M 0,0 -58.103,100.633 0,201.266 l 116.186,0 L 174.294,100.633 116.186,0 0,0 z"
         id="path3092"
         style="fill:none;stroke:#b7b7b7;stroke-width:1;stroke-linecap:butt;stroke-linejoin:miter;stroke-miterlimit:10;stroke-opacity:1;stroke-dasharray:none"
         inkscape:connector-curvature="0" /></g><g
       transform="translate(865.6124,445.3271)"
       id="g3094"><path
         d="M 0,0 -58.108,100.638 0,201.272 l 116.189,0 L 174.294,100.638 116.189,0 0,0 z"
         id="path3096"
         style="fill:none;stroke:#b7b7b7;stroke-width:1;stroke-linecap:butt;stroke-linejoin:miter;stroke-miterlimit:10;stroke-opacity:1;stroke-dasharray:none"
         inkscape:connector-curvature="0" /></g><g
       transform="translate(1273.8545,646.6279)"
       id="g3098"><path
         d="M 0,0 -58.095,100.633 0,201.272 l 116.194,0 L 174.299,100.633 116.194,0 0,0 z"
         id="path3100"
         style="fill:none;stroke:#b7b7b7;stroke-width:1;stroke-linecap:butt;stroke-linejoin:miter;stroke-miterlimit:10;stroke-opacity:1;stroke-dasharray:none"
         inkscape:connector-curvature="0" /></g><g
       transform="translate(1157.2999,546.5546)"
       id="g3102"><path
         d="M 0,0 -58.1,100.628 0,201.266 l 116.194,0 L 174.299,100.628 116.194,0 0,0 z"
         id="path3104"
         style="fill:none;stroke:#b7b7b7;stroke-width:1;stroke-linecap:butt;stroke-linejoin:miter;stroke-miterlimit:10;stroke-opacity:1;stroke-dasharray:none"
         inkscape:connector-curvature="0" /></g><g
       transform="translate(1274.9785,546.5546)"
       id="g3106"><path
         d="M 0,0 -58.105,100.628 0,201.266 l 116.194,0 58.1,-100.638 L 116.194,0 0,0 z"
         id="path3108"
         style="fill:none;stroke:#b7b7b7;stroke-width:1;stroke-linecap:butt;stroke-linejoin:miter;stroke-miterlimit:10;stroke-opacity:1;stroke-dasharray:none"
         inkscape:connector-curvature="0" /></g><g
       transform="translate(1394.2876,546.5546)"
       id="g3110"><path
         d="M 0,0 -58.103,100.628 0,201.266 l 116.198,0 L 174.299,100.628 116.198,0 0,0 z"
         id="path3112"
         style="fill:none;stroke:#b7b7b7;stroke-width:1;stroke-linecap:butt;stroke-linejoin:miter;stroke-miterlimit:10;stroke-opacity:1;stroke-dasharray:none"
         inkscape:connector-curvature="0" /></g><g
       transform="translate(948.5764,795.5308)"
       id="g3114"><path
         d="M 0,0 -29.189,50.552 0,101.109 l 58.375,0 L 87.569,50.552 58.375,0 0,0 z"
         id="path3116"
         style="fill:none;stroke:#b7b7b7;stroke-width:1;stroke-linecap:butt;stroke-linejoin:miter;stroke-miterlimit:10;stroke-opacity:1;stroke-dasharray:none"
         inkscape:connector-curvature="0" /></g><g
       transform="translate(1188.8724,597.7551)"
       id="g3118"><path
         d="M 0,0 -29.191,50.552 0,101.116 l 58.368,0 L 87.559,50.552 58.368,0 0,0 z"
         id="path3120"
         style="fill:none;stroke:#b7b7b7;stroke-width:1;stroke-linecap:butt;stroke-linejoin:miter;stroke-miterlimit:10;stroke-opacity:1;stroke-dasharray:none"
         inkscape:connector-curvature="0" /></g><g
       transform="translate(1013.8471,498.8693)"
       id="g3122"><path
         d="M 0,0 -29.194,50.557 0,101.117 l 58.363,0 L 87.564,50.557 58.363,0 0,0 z"
         id="path3124"
         style="fill:none;stroke:#b7b7b7;stroke-width:1;stroke-linecap:butt;stroke-linejoin:miter;stroke-miterlimit:10;stroke-opacity:1;stroke-dasharray:none"
         inkscape:connector-curvature="0" /></g><g
       transform="translate(834.8251,595.1234)"
       id="g3126"><path
         d="M 0,0 -29.194,50.552 0,101.112 l 58.366,0 L 87.569,50.552 58.366,0 0,0 z"
         id="path3128"
         style="fill:none;stroke:#b7b7b7;stroke-width:1;stroke-linecap:butt;stroke-linejoin:miter;stroke-miterlimit:10;stroke-opacity:1;stroke-dasharray:none"
         inkscape:connector-curvature="0" /></g><g
       transform="translate(1243.3472,796.7187)"
       id="g3130"><path
         d="M 0,0 -29.196,50.552 0,101.109 l 58.368,0 L 87.569,50.552 58.368,0 0,0 z"
         id="path3132"
         style="fill:none;stroke:#b7b7b7;stroke-width:1;stroke-linecap:butt;stroke-linejoin:miter;stroke-miterlimit:10;stroke-opacity:1;stroke-dasharray:none"
         inkscape:connector-curvature="0" /></g><g
       transform="translate(1483.2853,499.1885)"
       id="g3134"><path
         d="M 0,0 -29.189,50.557 0,101.109 l 58.375,0 L 87.574,50.557 58.375,0 0,0 z"
         id="path3136"
         style="fill:none;stroke:#b7b7b7;stroke-width:1;stroke-linecap:butt;stroke-linejoin:miter;stroke-miterlimit:10;stroke-opacity:1;stroke-dasharray:none"
         inkscape:connector-curvature="0" /></g><g
       transform="translate(1242.2673,298.1331)"
       id="g3138"><path
         d="M 0,0 -29.189,50.552 0,101.109 l 58.37,0 L 87.569,50.552 58.37,0 0,0 z"
         id="path3140"
         style="fill:none;stroke:#b7b7b7;stroke-width:1;stroke-linecap:butt;stroke-linejoin:miter;stroke-miterlimit:10;stroke-opacity:1;stroke-dasharray:none"
         inkscape:connector-curvature="0" /></g></g></svg>